<?xml version="1.0" encoding="utf-8" standalone="no"?>
<!DOCTYPE svg PUBLIC "-//W3C//DTD SVG 1.1//EN"
  "http://www.w3.org/Graphics/SVG/1.1/DTD/svg11.dtd">
<!-- Created with matplotlib (http://matplotlib.org/) -->
<svg height="252pt" version="1.1" viewBox="0 0 252 252" width="252pt" xmlns="http://www.w3.org/2000/svg" xmlns:xlink="http://www.w3.org/1999/xlink">
 <defs>
  <style type="text/css">
*{stroke-linecap:butt;stroke-linejoin:round;}
  </style>
 </defs>
 <g id="figure_1">
  <g id="patch_1">
   <path d="M 0 252 
L 252 252 
L 252 0 
L 0 0 
z
" style="fill:#ffffff;"/>
  </g>
  <g id="axes_1">
   <g id="patch_2">
    <path d="M 45.525 210.1 
L 237.7 210.1 
L 237.7 24.8 
L 45.525 24.8 
z
" style="fill:#ffffff;"/>
   </g>
   <g id="matplotlib.axis_1">
    <g id="xtick_1">
     <g id="line2d_1">
      <defs>
       <path d="M 0 0 
L 0 3.5 
" id="maa53686781" style="stroke:#000000;stroke-width:0.8;"/>
      </defs>
      <g>
       <use style="stroke:#000000;stroke-width:0.8;" x="49.268669" xlink:href="#maa53686781" y="210.1"/>
      </g>
     </g>
     <g id="text_1">
      <!-- 1980 -->
      <defs>
       <path d="M 12.40625 8.296875 
L 28.515625 8.296875 
L 28.515625 63.921875 
L 10.984375 60.40625 
L 10.984375 69.390625 
L 28.421875 72.90625 
L 38.28125 72.90625 
L 38.28125 8.296875 
L 54.390625 8.296875 
L 54.390625 0 
L 12.40625 0 
z
" id="DejaVuSans-31"/>
       <path d="M 10.984375 1.515625 
L 10.984375 10.5 
Q 14.703125 8.734375 18.5 7.8125 
Q 22.3125 6.890625 25.984375 6.890625 
Q 35.75 6.890625 40.890625 13.453125 
Q 46.046875 20.015625 46.78125 33.40625 
Q 43.953125 29.203125 39.59375 26.953125 
Q 35.25 24.703125 29.984375 24.703125 
Q 19.046875 24.703125 12.671875 31.3125 
Q 6.296875 37.9375 6.296875 49.421875 
Q 6.296875 60.640625 12.9375 67.421875 
Q 19.578125 74.21875 30.609375 74.21875 
Q 43.265625 74.21875 49.921875 64.515625 
Q 56.59375 54.828125 56.59375 36.375 
Q 56.59375 19.140625 48.40625 8.859375 
Q 40.234375 -1.421875 26.421875 -1.421875 
Q 22.703125 -1.421875 18.890625 -0.6875 
Q 15.09375 0.046875 10.984375 1.515625 
z
M 30.609375 32.421875 
Q 37.25 32.421875 41.125 36.953125 
Q 45.015625 41.5 45.015625 49.421875 
Q 45.015625 57.28125 41.125 61.84375 
Q 37.25 66.40625 30.609375 66.40625 
Q 23.96875 66.40625 20.09375 61.84375 
Q 16.21875 57.28125 16.21875 49.421875 
Q 16.21875 41.5 20.09375 36.953125 
Q 23.96875 32.421875 30.609375 32.421875 
z
" id="DejaVuSans-39"/>
       <path d="M 31.78125 34.625 
Q 24.75 34.625 20.71875 30.859375 
Q 16.703125 27.09375 16.703125 20.515625 
Q 16.703125 13.921875 20.71875 10.15625 
Q 24.75 6.390625 31.78125 6.390625 
Q 38.8125 6.390625 42.859375 10.171875 
Q 46.921875 13.96875 46.921875 20.515625 
Q 46.921875 27.09375 42.890625 30.859375 
Q 38.875 34.625 31.78125 34.625 
z
M 21.921875 38.8125 
Q 15.578125 40.375 12.03125 44.71875 
Q 8.5 49.078125 8.5 55.328125 
Q 8.5 64.0625 14.71875 69.140625 
Q 20.953125 74.21875 31.78125 74.21875 
Q 42.671875 74.21875 48.875 69.140625 
Q 55.078125 64.0625 55.078125 55.328125 
Q 55.078125 49.078125 51.53125 44.71875 
Q 48 40.375 41.703125 38.8125 
Q 48.828125 37.15625 52.796875 32.3125 
Q 56.78125 27.484375 56.78125 20.515625 
Q 56.78125 9.90625 50.3125 4.234375 
Q 43.84375 -1.421875 31.78125 -1.421875 
Q 19.734375 -1.421875 13.25 4.234375 
Q 6.78125 9.90625 6.78125 20.515625 
Q 6.78125 27.484375 10.78125 32.3125 
Q 14.796875 37.15625 21.921875 38.8125 
z
M 18.3125 54.390625 
Q 18.3125 48.734375 21.84375 45.5625 
Q 25.390625 42.390625 31.78125 42.390625 
Q 38.140625 42.390625 41.71875 45.5625 
Q 45.3125 48.734375 45.3125 54.390625 
Q 45.3125 60.0625 41.71875 63.234375 
Q 38.140625 66.40625 31.78125 66.40625 
Q 25.390625 66.40625 21.84375 63.234375 
Q 18.3125 60.0625 18.3125 54.390625 
z
" id="DejaVuSans-38"/>
       <path d="M 31.78125 66.40625 
Q 24.171875 66.40625 20.328125 58.90625 
Q 16.5 51.421875 16.5 36.375 
Q 16.5 21.390625 20.328125 13.890625 
Q 24.171875 6.390625 31.78125 6.390625 
Q 39.453125 6.390625 43.28125 13.890625 
Q 47.125 21.390625 47.125 36.375 
Q 47.125 51.421875 43.28125 58.90625 
Q 39.453125 66.40625 31.78125 66.40625 
z
M 31.78125 74.21875 
Q 44.046875 74.21875 50.515625 64.515625 
Q 56.984375 54.828125 56.984375 36.375 
Q 56.984375 17.96875 50.515625 8.265625 
Q 44.046875 -1.421875 31.78125 -1.421875 
Q 19.53125 -1.421875 13.0625 8.265625 
Q 6.59375 17.96875 6.59375 36.375 
Q 6.59375 54.828125 13.0625 64.515625 
Q 19.53125 74.21875 31.78125 74.21875 
z
" id="DejaVuSans-30"/>
      </defs>
      <g transform="translate(39.088669 225.27875)scale(0.08 -0.08)">
       <use xlink:href="#DejaVuSans-31"/>
       <use x="63.623047" xlink:href="#DejaVuSans-39"/>
       <use x="127.246094" xlink:href="#DejaVuSans-38"/>
       <use x="190.869141" xlink:href="#DejaVuSans-30"/>
      </g>
     </g>
    </g>
    <g id="xtick_2">
     <g id="line2d_2">
      <g>
       <use style="stroke:#000000;stroke-width:0.8;" x="74.226461" xlink:href="#maa53686781" y="210.1"/>
      </g>
     </g>
     <g id="text_2">
      <!-- 1985 -->
      <defs>
       <path d="M 10.796875 72.90625 
L 49.515625 72.90625 
L 49.515625 64.59375 
L 19.828125 64.59375 
L 19.828125 46.734375 
Q 21.96875 47.46875 24.109375 47.828125 
Q 26.265625 48.1875 28.421875 48.1875 
Q 40.625 48.1875 47.75 41.5 
Q 54.890625 34.8125 54.890625 23.390625 
Q 54.890625 11.625 47.5625 5.09375 
Q 40.234375 -1.421875 26.90625 -1.421875 
Q 22.3125 -1.421875 17.546875 -0.640625 
Q 12.796875 0.140625 7.71875 1.703125 
L 7.71875 11.625 
Q 12.109375 9.234375 16.796875 8.0625 
Q 21.484375 6.890625 26.703125 6.890625 
Q 35.15625 6.890625 40.078125 11.328125 
Q 45.015625 15.765625 45.015625 23.390625 
Q 45.015625 31 40.078125 35.4375 
Q 35.15625 39.890625 26.703125 39.890625 
Q 22.75 39.890625 18.8125 39.015625 
Q 14.890625 38.140625 10.796875 36.28125 
z
" id="DejaVuSans-35"/>
      </defs>
      <g transform="translate(64.046461 225.27875)scale(0.08 -0.08)">
       <use xlink:href="#DejaVuSans-31"/>
       <use x="63.623047" xlink:href="#DejaVuSans-39"/>
       <use x="127.246094" xlink:href="#DejaVuSans-38"/>
       <use x="190.869141" xlink:href="#DejaVuSans-35"/>
      </g>
     </g>
    </g>
    <g id="xtick_3">
     <g id="line2d_3">
      <g>
       <use style="stroke:#000000;stroke-width:0.8;" x="99.184253" xlink:href="#maa53686781" y="210.1"/>
      </g>
     </g>
     <g id="text_3">
      <!-- 1990 -->
      <g transform="translate(89.004253 225.27875)scale(0.08 -0.08)">
       <use xlink:href="#DejaVuSans-31"/>
       <use x="63.623047" xlink:href="#DejaVuSans-39"/>
       <use x="127.246094" xlink:href="#DejaVuSans-39"/>
       <use x="190.869141" xlink:href="#DejaVuSans-30"/>
      </g>
     </g>
    </g>
    <g id="xtick_4">
     <g id="line2d_4">
      <g>
       <use style="stroke:#000000;stroke-width:0.8;" x="124.142045" xlink:href="#maa53686781" y="210.1"/>
      </g>
     </g>
     <g id="text_4">
      <!-- 1995 -->
      <g transform="translate(113.962045 225.27875)scale(0.08 -0.08)">
       <use xlink:href="#DejaVuSans-31"/>
       <use x="63.623047" xlink:href="#DejaVuSans-39"/>
       <use x="127.246094" xlink:href="#DejaVuSans-39"/>
       <use x="190.869141" xlink:href="#DejaVuSans-35"/>
      </g>
     </g>
    </g>
    <g id="xtick_5">
     <g id="line2d_5">
      <g>
       <use style="stroke:#000000;stroke-width:0.8;" x="149.099838" xlink:href="#maa53686781" y="210.1"/>
      </g>
     </g>
     <g id="text_5">
      <!-- 2000 -->
      <defs>
       <path d="M 19.1875 8.296875 
L 53.609375 8.296875 
L 53.609375 0 
L 7.328125 0 
L 7.328125 8.296875 
Q 12.9375 14.109375 22.625 23.890625 
Q 32.328125 33.6875 34.8125 36.53125 
Q 39.546875 41.84375 41.421875 45.53125 
Q 43.3125 49.21875 43.3125 52.78125 
Q 43.3125 58.59375 39.234375 62.25 
Q 35.15625 65.921875 28.609375 65.921875 
Q 23.96875 65.921875 18.8125 64.3125 
Q 13.671875 62.703125 7.8125 59.421875 
L 7.8125 69.390625 
Q 13.765625 71.78125 18.9375 73 
Q 24.125 74.21875 28.421875 74.21875 
Q 39.75 74.21875 46.484375 68.546875 
Q 53.21875 62.890625 53.21875 53.421875 
Q 53.21875 48.921875 51.53125 44.890625 
Q 49.859375 40.875 45.40625 35.40625 
Q 44.1875 33.984375 37.640625 27.21875 
Q 31.109375 20.453125 19.1875 8.296875 
z
" id="DejaVuSans-32"/>
      </defs>
      <g transform="translate(138.919838 225.27875)scale(0.08 -0.08)">
       <use xlink:href="#DejaVuSans-32"/>
       <use x="63.623047" xlink:href="#DejaVuSans-30"/>
       <use x="127.246094" xlink:href="#DejaVuSans-30"/>
       <use x="190.869141" xlink:href="#DejaVuSans-30"/>
      </g>
     </g>
    </g>
    <g id="xtick_6">
     <g id="line2d_6">
      <g>
       <use style="stroke:#000000;stroke-width:0.8;" x="174.05763" xlink:href="#maa53686781" y="210.1"/>
      </g>
     </g>
     <g id="text_6">
      <!-- 2005 -->
      <g transform="translate(163.87763 225.27875)scale(0.08 -0.08)">
       <use xlink:href="#DejaVuSans-32"/>
       <use x="63.623047" xlink:href="#DejaVuSans-30"/>
       <use x="127.246094" xlink:href="#DejaVuSans-30"/>
       <use x="190.869141" xlink:href="#DejaVuSans-35"/>
      </g>
     </g>
    </g>
    <g id="xtick_7">
     <g id="line2d_7">
      <g>
       <use style="stroke:#000000;stroke-width:0.8;" x="199.015422" xlink:href="#maa53686781" y="210.1"/>
      </g>
     </g>
     <g id="text_7">
      <!-- 2010 -->
      <g transform="translate(188.835422 225.27875)scale(0.08 -0.08)">
       <use xlink:href="#DejaVuSans-32"/>
       <use x="63.623047" xlink:href="#DejaVuSans-30"/>
       <use x="127.246094" xlink:href="#DejaVuSans-31"/>
       <use x="190.869141" xlink:href="#DejaVuSans-30"/>
      </g>
     </g>
    </g>
    <g id="xtick_8">
     <g id="line2d_8">
      <g>
       <use style="stroke:#000000;stroke-width:0.8;" x="223.973214" xlink:href="#maa53686781" y="210.1"/>
      </g>
     </g>
     <g id="text_8">
      <!-- 2015 -->
      <g transform="translate(213.793214 225.27875)scale(0.08 -0.08)">
       <use xlink:href="#DejaVuSans-32"/>
       <use x="63.623047" xlink:href="#DejaVuSans-30"/>
       <use x="127.246094" xlink:href="#DejaVuSans-31"/>
       <use x="190.869141" xlink:href="#DejaVuSans-35"/>
      </g>
     </g>
    </g>
    <g id="text_9">
     <!-- Year -->
     <defs>
      <path d="M -0.203125 72.90625 
L 10.40625 72.90625 
L 30.609375 42.921875 
L 50.6875 72.90625 
L 61.28125 72.90625 
L 35.5 34.71875 
L 35.5 0 
L 25.59375 0 
L 25.59375 34.71875 
z
" id="DejaVuSans-59"/>
      <path d="M 56.203125 29.59375 
L 56.203125 25.203125 
L 14.890625 25.203125 
Q 15.484375 15.921875 20.484375 11.0625 
Q 25.484375 6.203125 34.421875 6.203125 
Q 39.59375 6.203125 44.453125 7.46875 
Q 49.3125 8.734375 54.109375 11.28125 
L 54.109375 2.78125 
Q 49.265625 0.734375 44.1875 -0.34375 
Q 39.109375 -1.421875 33.890625 -1.421875 
Q 20.796875 -1.421875 13.15625 6.1875 
Q 5.515625 13.8125 5.515625 26.8125 
Q 5.515625 40.234375 12.765625 48.109375 
Q 20.015625 56 32.328125 56 
Q 43.359375 56 49.78125 48.890625 
Q 56.203125 41.796875 56.203125 29.59375 
z
M 47.21875 32.234375 
Q 47.125 39.59375 43.09375 43.984375 
Q 39.0625 48.390625 32.421875 48.390625 
Q 24.90625 48.390625 20.390625 44.140625 
Q 15.875 39.890625 15.1875 32.171875 
z
" id="DejaVuSans-65"/>
      <path d="M 34.28125 27.484375 
Q 23.390625 27.484375 19.1875 25 
Q 14.984375 22.515625 14.984375 16.5 
Q 14.984375 11.71875 18.140625 8.90625 
Q 21.296875 6.109375 26.703125 6.109375 
Q 34.1875 6.109375 38.703125 11.40625 
Q 43.21875 16.703125 43.21875 25.484375 
L 43.21875 27.484375 
z
M 52.203125 31.203125 
L 52.203125 0 
L 43.21875 0 
L 43.21875 8.296875 
Q 40.140625 3.328125 35.546875 0.953125 
Q 30.953125 -1.421875 24.3125 -1.421875 
Q 15.921875 -1.421875 10.953125 3.296875 
Q 6 8.015625 6 15.921875 
Q 6 25.140625 12.171875 29.828125 
Q 18.359375 34.515625 30.609375 34.515625 
L 43.21875 34.515625 
L 43.21875 35.40625 
Q 43.21875 41.609375 39.140625 45 
Q 35.0625 48.390625 27.6875 48.390625 
Q 23 48.390625 18.546875 47.265625 
Q 14.109375 46.140625 10.015625 43.890625 
L 10.015625 52.203125 
Q 14.9375 54.109375 19.578125 55.046875 
Q 24.21875 56 28.609375 56 
Q 40.484375 56 46.34375 49.84375 
Q 52.203125 43.703125 52.203125 31.203125 
z
" id="DejaVuSans-61"/>
      <path d="M 41.109375 46.296875 
Q 39.59375 47.171875 37.8125 47.578125 
Q 36.03125 48 33.890625 48 
Q 26.265625 48 22.1875 43.046875 
Q 18.109375 38.09375 18.109375 28.8125 
L 18.109375 0 
L 9.078125 0 
L 9.078125 54.6875 
L 18.109375 54.6875 
L 18.109375 46.1875 
Q 20.953125 51.171875 25.484375 53.578125 
Q 30.03125 56 36.53125 56 
Q 37.453125 56 38.578125 55.875 
Q 39.703125 55.765625 41.0625 55.515625 
z
" id="DejaVuSans-72"/>
     </defs>
     <g transform="translate(131.721438 237.629125)scale(0.088 -0.088)">
      <use xlink:href="#DejaVuSans-59"/>
      <use x="60.880859" xlink:href="#DejaVuSans-65"/>
      <use x="122.404297" xlink:href="#DejaVuSans-61"/>
      <use x="183.683594" xlink:href="#DejaVuSans-72"/>
     </g>
    </g>
   </g>
   <g id="matplotlib.axis_2">
    <g id="ytick_1">
     <g id="line2d_9">
      <defs>
       <path d="M 0 0 
L -3.5 0 
" id="ma33c31acf5" style="stroke:#000000;stroke-width:0.8;"/>
      </defs>
      <g>
       <use style="stroke:#000000;stroke-width:0.8;" x="45.525" xlink:href="#ma33c31acf5" y="194.016558"/>
      </g>
     </g>
     <g id="text_10">
      <!-- 0.3 -->
      <defs>
       <path d="M 10.6875 12.40625 
L 21 12.40625 
L 21 0 
L 10.6875 0 
z
" id="DejaVuSans-2e"/>
       <path d="M 40.578125 39.3125 
Q 47.65625 37.796875 51.625 33 
Q 55.609375 28.21875 55.609375 21.1875 
Q 55.609375 10.40625 48.1875 4.484375 
Q 40.765625 -1.421875 27.09375 -1.421875 
Q 22.515625 -1.421875 17.65625 -0.515625 
Q 12.796875 0.390625 7.625 2.203125 
L 7.625 11.71875 
Q 11.71875 9.328125 16.59375 8.109375 
Q 21.484375 6.890625 26.8125 6.890625 
Q 36.078125 6.890625 40.9375 10.546875 
Q 45.796875 14.203125 45.796875 21.1875 
Q 45.796875 27.640625 41.28125 31.265625 
Q 36.765625 34.90625 28.71875 34.90625 
L 20.21875 34.90625 
L 20.21875 43.015625 
L 29.109375 43.015625 
Q 36.375 43.015625 40.234375 45.921875 
Q 44.09375 48.828125 44.09375 54.296875 
Q 44.09375 59.90625 40.109375 62.90625 
Q 36.140625 65.921875 28.71875 65.921875 
Q 24.65625 65.921875 20.015625 65.03125 
Q 15.375 64.15625 9.8125 62.3125 
L 9.8125 71.09375 
Q 15.4375 72.65625 20.34375 73.4375 
Q 25.25 74.21875 29.59375 74.21875 
Q 40.828125 74.21875 47.359375 69.109375 
Q 53.90625 64.015625 53.90625 55.328125 
Q 53.90625 49.265625 50.4375 45.09375 
Q 46.96875 40.921875 40.578125 39.3125 
z
" id="DejaVuSans-33"/>
      </defs>
      <g transform="translate(23.7025 197.055933)scale(0.08 -0.08)">
       <use xlink:href="#DejaVuSans-30"/>
       <use x="63.623047" xlink:href="#DejaVuSans-2e"/>
       <use x="95.410156" xlink:href="#DejaVuSans-33"/>
      </g>
     </g>
    </g>
    <g id="ytick_2">
     <g id="line2d_10">
      <g>
       <use style="stroke:#000000;stroke-width:0.8;" x="45.525" xlink:href="#ma33c31acf5" y="170.587851"/>
      </g>
     </g>
     <g id="text_11">
      <!-- 0.4 -->
      <defs>
       <path d="M 37.796875 64.3125 
L 12.890625 25.390625 
L 37.796875 25.390625 
z
M 35.203125 72.90625 
L 47.609375 72.90625 
L 47.609375 25.390625 
L 58.015625 25.390625 
L 58.015625 17.1875 
L 47.609375 17.1875 
L 47.609375 0 
L 37.796875 0 
L 37.796875 17.1875 
L 4.890625 17.1875 
L 4.890625 26.703125 
z
" id="DejaVuSans-34"/>
      </defs>
      <g transform="translate(23.7025 173.627226)scale(0.08 -0.08)">
       <use xlink:href="#DejaVuSans-30"/>
       <use x="63.623047" xlink:href="#DejaVuSans-2e"/>
       <use x="95.410156" xlink:href="#DejaVuSans-34"/>
      </g>
     </g>
    </g>
    <g id="ytick_3">
     <g id="line2d_11">
      <g>
       <use style="stroke:#000000;stroke-width:0.8;" x="45.525" xlink:href="#ma33c31acf5" y="147.159143"/>
      </g>
     </g>
     <g id="text_12">
      <!-- 0.5 -->
      <g transform="translate(23.7025 150.198518)scale(0.08 -0.08)">
       <use xlink:href="#DejaVuSans-30"/>
       <use x="63.623047" xlink:href="#DejaVuSans-2e"/>
       <use x="95.410156" xlink:href="#DejaVuSans-35"/>
      </g>
     </g>
    </g>
    <g id="ytick_4">
     <g id="line2d_12">
      <g>
       <use style="stroke:#000000;stroke-width:0.8;" x="45.525" xlink:href="#ma33c31acf5" y="123.730435"/>
      </g>
     </g>
     <g id="text_13">
      <!-- 0.6 -->
      <defs>
       <path d="M 33.015625 40.375 
Q 26.375 40.375 22.484375 35.828125 
Q 18.609375 31.296875 18.609375 23.390625 
Q 18.609375 15.53125 22.484375 10.953125 
Q 26.375 6.390625 33.015625 6.390625 
Q 39.65625 6.390625 43.53125 10.953125 
Q 47.40625 15.53125 47.40625 23.390625 
Q 47.40625 31.296875 43.53125 35.828125 
Q 39.65625 40.375 33.015625 40.375 
z
M 52.59375 71.296875 
L 52.59375 62.3125 
Q 48.875 64.0625 45.09375 64.984375 
Q 41.3125 65.921875 37.59375 65.921875 
Q 27.828125 65.921875 22.671875 59.328125 
Q 17.53125 52.734375 16.796875 39.40625 
Q 19.671875 43.65625 24.015625 45.921875 
Q 28.375 48.1875 33.59375 48.1875 
Q 44.578125 48.1875 50.953125 41.515625 
Q 57.328125 34.859375 57.328125 23.390625 
Q 57.328125 12.15625 50.6875 5.359375 
Q 44.046875 -1.421875 33.015625 -1.421875 
Q 20.359375 -1.421875 13.671875 8.265625 
Q 6.984375 17.96875 6.984375 36.375 
Q 6.984375 53.65625 15.1875 63.9375 
Q 23.390625 74.21875 37.203125 74.21875 
Q 40.921875 74.21875 44.703125 73.484375 
Q 48.484375 72.75 52.59375 71.296875 
z
" id="DejaVuSans-36"/>
      </defs>
      <g transform="translate(23.7025 126.76981)scale(0.08 -0.08)">
       <use xlink:href="#DejaVuSans-30"/>
       <use x="63.623047" xlink:href="#DejaVuSans-2e"/>
       <use x="95.410156" xlink:href="#DejaVuSans-36"/>
      </g>
     </g>
    </g>
    <g id="ytick_5">
     <g id="line2d_13">
      <g>
       <use style="stroke:#000000;stroke-width:0.8;" x="45.525" xlink:href="#ma33c31acf5" y="100.301727"/>
      </g>
     </g>
     <g id="text_14">
      <!-- 0.7 -->
      <defs>
       <path d="M 8.203125 72.90625 
L 55.078125 72.90625 
L 55.078125 68.703125 
L 28.609375 0 
L 18.3125 0 
L 43.21875 64.59375 
L 8.203125 64.59375 
z
" id="DejaVuSans-37"/>
      </defs>
      <g transform="translate(23.7025 103.341102)scale(0.08 -0.08)">
       <use xlink:href="#DejaVuSans-30"/>
       <use x="63.623047" xlink:href="#DejaVuSans-2e"/>
       <use x="95.410156" xlink:href="#DejaVuSans-37"/>
      </g>
     </g>
    </g>
    <g id="ytick_6">
     <g id="line2d_14">
      <g>
       <use style="stroke:#000000;stroke-width:0.8;" x="45.525" xlink:href="#ma33c31acf5" y="76.87302"/>
      </g>
     </g>
     <g id="text_15">
      <!-- 0.8 -->
      <g transform="translate(23.7025 79.912395)scale(0.08 -0.08)">
       <use xlink:href="#DejaVuSans-30"/>
       <use x="63.623047" xlink:href="#DejaVuSans-2e"/>
       <use x="95.410156" xlink:href="#DejaVuSans-38"/>
      </g>
     </g>
    </g>
    <g id="ytick_7">
     <g id="line2d_15">
      <g>
       <use style="stroke:#000000;stroke-width:0.8;" x="45.525" xlink:href="#ma33c31acf5" y="53.444312"/>
      </g>
     </g>
     <g id="text_16">
      <!-- 0.9 -->
      <g transform="translate(23.7025 56.483687)scale(0.08 -0.08)">
       <use xlink:href="#DejaVuSans-30"/>
       <use x="63.623047" xlink:href="#DejaVuSans-2e"/>
       <use x="95.410156" xlink:href="#DejaVuSans-39"/>
      </g>
     </g>
    </g>
    <g id="ytick_8">
     <g id="line2d_16">
      <g>
       <use style="stroke:#000000;stroke-width:0.8;" x="45.525" xlink:href="#ma33c31acf5" y="30.015604"/>
      </g>
     </g>
     <g id="text_17">
      <!-- 1.0 -->
      <g transform="translate(23.7025 33.054979)scale(0.08 -0.08)">
       <use xlink:href="#DejaVuSans-31"/>
       <use x="63.623047" xlink:href="#DejaVuSans-2e"/>
       <use x="95.410156" xlink:href="#DejaVuSans-30"/>
      </g>
     </g>
    </g>
    <g id="text_18">
     <!-- Fraction of Alive Publications -->
     <defs>
      <path d="M 9.8125 72.90625 
L 51.703125 72.90625 
L 51.703125 64.59375 
L 19.671875 64.59375 
L 19.671875 43.109375 
L 48.578125 43.109375 
L 48.578125 34.8125 
L 19.671875 34.8125 
L 19.671875 0 
L 9.8125 0 
z
" id="DejaVuSans-46"/>
      <path d="M 48.78125 52.59375 
L 48.78125 44.1875 
Q 44.96875 46.296875 41.140625 47.34375 
Q 37.3125 48.390625 33.40625 48.390625 
Q 24.65625 48.390625 19.8125 42.84375 
Q 14.984375 37.3125 14.984375 27.296875 
Q 14.984375 17.28125 19.8125 11.734375 
Q 24.65625 6.203125 33.40625 6.203125 
Q 37.3125 6.203125 41.140625 7.25 
Q 44.96875 8.296875 48.78125 10.40625 
L 48.78125 2.09375 
Q 45.015625 0.34375 40.984375 -0.53125 
Q 36.96875 -1.421875 32.421875 -1.421875 
Q 20.0625 -1.421875 12.78125 6.34375 
Q 5.515625 14.109375 5.515625 27.296875 
Q 5.515625 40.671875 12.859375 48.328125 
Q 20.21875 56 33.015625 56 
Q 37.15625 56 41.109375 55.140625 
Q 45.0625 54.296875 48.78125 52.59375 
z
" id="DejaVuSans-63"/>
      <path d="M 18.3125 70.21875 
L 18.3125 54.6875 
L 36.8125 54.6875 
L 36.8125 47.703125 
L 18.3125 47.703125 
L 18.3125 18.015625 
Q 18.3125 11.328125 20.140625 9.421875 
Q 21.96875 7.515625 27.59375 7.515625 
L 36.8125 7.515625 
L 36.8125 0 
L 27.59375 0 
Q 17.1875 0 13.234375 3.875 
Q 9.28125 7.765625 9.28125 18.015625 
L 9.28125 47.703125 
L 2.6875 47.703125 
L 2.6875 54.6875 
L 9.28125 54.6875 
L 9.28125 70.21875 
z
" id="DejaVuSans-74"/>
      <path d="M 9.421875 54.6875 
L 18.40625 54.6875 
L 18.40625 0 
L 9.421875 0 
z
M 9.421875 75.984375 
L 18.40625 75.984375 
L 18.40625 64.59375 
L 9.421875 64.59375 
z
" id="DejaVuSans-69"/>
      <path d="M 30.609375 48.390625 
Q 23.390625 48.390625 19.1875 42.75 
Q 14.984375 37.109375 14.984375 27.296875 
Q 14.984375 17.484375 19.15625 11.84375 
Q 23.34375 6.203125 30.609375 6.203125 
Q 37.796875 6.203125 41.984375 11.859375 
Q 46.1875 17.53125 46.1875 27.296875 
Q 46.1875 37.015625 41.984375 42.703125 
Q 37.796875 48.390625 30.609375 48.390625 
z
M 30.609375 56 
Q 42.328125 56 49.015625 48.375 
Q 55.71875 40.765625 55.71875 27.296875 
Q 55.71875 13.875 49.015625 6.21875 
Q 42.328125 -1.421875 30.609375 -1.421875 
Q 18.84375 -1.421875 12.171875 6.21875 
Q 5.515625 13.875 5.515625 27.296875 
Q 5.515625 40.765625 12.171875 48.375 
Q 18.84375 56 30.609375 56 
z
" id="DejaVuSans-6f"/>
      <path d="M 54.890625 33.015625 
L 54.890625 0 
L 45.90625 0 
L 45.90625 32.71875 
Q 45.90625 40.484375 42.875 44.328125 
Q 39.84375 48.1875 33.796875 48.1875 
Q 26.515625 48.1875 22.3125 43.546875 
Q 18.109375 38.921875 18.109375 30.90625 
L 18.109375 0 
L 9.078125 0 
L 9.078125 54.6875 
L 18.109375 54.6875 
L 18.109375 46.1875 
Q 21.34375 51.125 25.703125 53.5625 
Q 30.078125 56 35.796875 56 
Q 45.21875 56 50.046875 50.171875 
Q 54.890625 44.34375 54.890625 33.015625 
z
" id="DejaVuSans-6e"/>
      <path id="DejaVuSans-20"/>
      <path d="M 37.109375 75.984375 
L 37.109375 68.5 
L 28.515625 68.5 
Q 23.6875 68.5 21.796875 66.546875 
Q 19.921875 64.59375 19.921875 59.515625 
L 19.921875 54.6875 
L 34.71875 54.6875 
L 34.71875 47.703125 
L 19.921875 47.703125 
L 19.921875 0 
L 10.890625 0 
L 10.890625 47.703125 
L 2.296875 47.703125 
L 2.296875 54.6875 
L 10.890625 54.6875 
L 10.890625 58.5 
Q 10.890625 67.625 15.140625 71.796875 
Q 19.390625 75.984375 28.609375 75.984375 
z
" id="DejaVuSans-66"/>
      <path d="M 34.1875 63.1875 
L 20.796875 26.90625 
L 47.609375 26.90625 
z
M 28.609375 72.90625 
L 39.796875 72.90625 
L 67.578125 0 
L 57.328125 0 
L 50.6875 18.703125 
L 17.828125 18.703125 
L 11.1875 0 
L 0.78125 0 
z
" id="DejaVuSans-41"/>
      <path d="M 9.421875 75.984375 
L 18.40625 75.984375 
L 18.40625 0 
L 9.421875 0 
z
" id="DejaVuSans-6c"/>
      <path d="M 2.984375 54.6875 
L 12.5 54.6875 
L 29.59375 8.796875 
L 46.6875 54.6875 
L 56.203125 54.6875 
L 35.6875 0 
L 23.484375 0 
z
" id="DejaVuSans-76"/>
      <path d="M 19.671875 64.796875 
L 19.671875 37.40625 
L 32.078125 37.40625 
Q 38.96875 37.40625 42.71875 40.96875 
Q 46.484375 44.53125 46.484375 51.125 
Q 46.484375 57.671875 42.71875 61.234375 
Q 38.96875 64.796875 32.078125 64.796875 
z
M 9.8125 72.90625 
L 32.078125 72.90625 
Q 44.34375 72.90625 50.609375 67.359375 
Q 56.890625 61.8125 56.890625 51.125 
Q 56.890625 40.328125 50.609375 34.8125 
Q 44.34375 29.296875 32.078125 29.296875 
L 19.671875 29.296875 
L 19.671875 0 
L 9.8125 0 
z
" id="DejaVuSans-50"/>
      <path d="M 8.5 21.578125 
L 8.5 54.6875 
L 17.484375 54.6875 
L 17.484375 21.921875 
Q 17.484375 14.15625 20.5 10.265625 
Q 23.53125 6.390625 29.59375 6.390625 
Q 36.859375 6.390625 41.078125 11.03125 
Q 45.3125 15.671875 45.3125 23.6875 
L 45.3125 54.6875 
L 54.296875 54.6875 
L 54.296875 0 
L 45.3125 0 
L 45.3125 8.40625 
Q 42.046875 3.421875 37.71875 1 
Q 33.40625 -1.421875 27.6875 -1.421875 
Q 18.265625 -1.421875 13.375 4.4375 
Q 8.5 10.296875 8.5 21.578125 
z
M 31.109375 56 
z
" id="DejaVuSans-75"/>
      <path d="M 48.6875 27.296875 
Q 48.6875 37.203125 44.609375 42.84375 
Q 40.53125 48.484375 33.40625 48.484375 
Q 26.265625 48.484375 22.1875 42.84375 
Q 18.109375 37.203125 18.109375 27.296875 
Q 18.109375 17.390625 22.1875 11.75 
Q 26.265625 6.109375 33.40625 6.109375 
Q 40.53125 6.109375 44.609375 11.75 
Q 48.6875 17.390625 48.6875 27.296875 
z
M 18.109375 46.390625 
Q 20.953125 51.265625 25.265625 53.625 
Q 29.59375 56 35.59375 56 
Q 45.5625 56 51.78125 48.09375 
Q 58.015625 40.1875 58.015625 27.296875 
Q 58.015625 14.40625 51.78125 6.484375 
Q 45.5625 -1.421875 35.59375 -1.421875 
Q 29.59375 -1.421875 25.265625 0.953125 
Q 20.953125 3.328125 18.109375 8.203125 
L 18.109375 0 
L 9.078125 0 
L 9.078125 75.984375 
L 18.109375 75.984375 
z
" id="DejaVuSans-62"/>
      <path d="M 44.28125 53.078125 
L 44.28125 44.578125 
Q 40.484375 46.53125 36.375 47.5 
Q 32.28125 48.484375 27.875 48.484375 
Q 21.1875 48.484375 17.84375 46.4375 
Q 14.5 44.390625 14.5 40.28125 
Q 14.5 37.15625 16.890625 35.375 
Q 19.28125 33.59375 26.515625 31.984375 
L 29.59375 31.296875 
Q 39.15625 29.25 43.1875 25.515625 
Q 47.21875 21.78125 47.21875 15.09375 
Q 47.21875 7.46875 41.1875 3.015625 
Q 35.15625 -1.421875 24.609375 -1.421875 
Q 20.21875 -1.421875 15.453125 -0.5625 
Q 10.6875 0.296875 5.421875 2 
L 5.421875 11.28125 
Q 10.40625 8.6875 15.234375 7.390625 
Q 20.0625 6.109375 24.8125 6.109375 
Q 31.15625 6.109375 34.5625 8.28125 
Q 37.984375 10.453125 37.984375 14.40625 
Q 37.984375 18.0625 35.515625 20.015625 
Q 33.0625 21.96875 24.703125 23.78125 
L 21.578125 24.515625 
Q 13.234375 26.265625 9.515625 29.90625 
Q 5.8125 33.546875 5.8125 39.890625 
Q 5.8125 47.609375 11.28125 51.796875 
Q 16.75 56 26.8125 56 
Q 31.78125 56 36.171875 55.265625 
Q 40.578125 54.546875 44.28125 53.078125 
z
" id="DejaVuSans-73"/>
     </defs>
     <g transform="translate(17.872375 181.045813)rotate(-90)scale(0.088 -0.088)">
      <use xlink:href="#DejaVuSans-46"/>
      <use x="57.410156" xlink:href="#DejaVuSans-72"/>
      <use x="98.523438" xlink:href="#DejaVuSans-61"/>
      <use x="159.802734" xlink:href="#DejaVuSans-63"/>
      <use x="214.783203" xlink:href="#DejaVuSans-74"/>
      <use x="253.992188" xlink:href="#DejaVuSans-69"/>
      <use x="281.775391" xlink:href="#DejaVuSans-6f"/>
      <use x="342.957031" xlink:href="#DejaVuSans-6e"/>
      <use x="406.335938" xlink:href="#DejaVuSans-20"/>
      <use x="438.123047" xlink:href="#DejaVuSans-6f"/>
      <use x="499.304688" xlink:href="#DejaVuSans-66"/>
      <use x="534.509766" xlink:href="#DejaVuSans-20"/>
      <use x="566.296875" xlink:href="#DejaVuSans-41"/>
      <use x="634.705078" xlink:href="#DejaVuSans-6c"/>
      <use x="662.488281" xlink:href="#DejaVuSans-69"/>
      <use x="690.271484" xlink:href="#DejaVuSans-76"/>
      <use x="749.451172" xlink:href="#DejaVuSans-65"/>
      <use x="810.974609" xlink:href="#DejaVuSans-20"/>
      <use x="842.761719" xlink:href="#DejaVuSans-50"/>
      <use x="903.048828" xlink:href="#DejaVuSans-75"/>
      <use x="966.427734" xlink:href="#DejaVuSans-62"/>
      <use x="1029.904297" xlink:href="#DejaVuSans-6c"/>
      <use x="1057.6875" xlink:href="#DejaVuSans-69"/>
      <use x="1085.470703" xlink:href="#DejaVuSans-63"/>
      <use x="1140.451172" xlink:href="#DejaVuSans-61"/>
      <use x="1201.730469" xlink:href="#DejaVuSans-74"/>
      <use x="1240.939453" xlink:href="#DejaVuSans-69"/>
      <use x="1268.722656" xlink:href="#DejaVuSans-6f"/>
      <use x="1329.904297" xlink:href="#DejaVuSans-6e"/>
      <use x="1393.283203" xlink:href="#DejaVuSans-73"/>
     </g>
    </g>
   </g>
   <g id="line2d_17">
    <path clip-path="url(#p16e6e7b3aa)" d="M 54.260227 105.60953 
L 59.251786 103.648686 
L 64.243344 98.645152 
L 69.234903 92.492158 
L 74.226461 91.139852 
L 79.218019 89.517084 
L 84.209578 86.609625 
L 89.201136 82.34986 
L 94.192695 81.268015 
L 99.184253 78.766249 
L 104.175812 76.87302 
L 109.16737 74.100792 
L 114.158929 72.748485 
L 119.150487 70.111488 
L 124.142045 69.367719 
L 129.133604 66.865953 
L 134.125162 66.730722 
L 139.116721 64.905108 
L 144.108279 63.958494 
L 149.099838 63.485187 
L 154.091396 62.606187 
L 159.082955 61.727188 
L 164.074513 61.456727 
L 169.066071 60.780574 
L 174.05763 59.360652 
L 179.049188 58.81973 
L 184.040747 58.008346 
L 189.032305 57.940731 
L 194.023864 57.873115 
L 199.015422 57.399808 
L 204.006981 57.602654 
L 208.998539 56.926501 
L 213.990097 57.061731 
L 218.981656 56.047502 
L 223.973214 55.574194 
L 228.964773 55.303733 
" style="fill:none;opacity:0.7;stroke:#1f77b4;stroke-dasharray:1.4,2.31;stroke-dashoffset:0;stroke-width:1.4;"/>
   </g>
   <g id="line2d_18">
    <path clip-path="url(#p16e6e7b3aa)" d="M 54.260227 199.527207 
L 59.251786 191.278138 
L 64.243344 181.271071 
L 69.234903 175.997076 
L 74.226461 170.249774 
L 79.218019 163.150166 
L 84.209578 159.837015 
L 89.201136 155.982942 
L 94.192695 151.520331 
L 99.184253 148.612872 
L 104.175812 145.232106 
L 109.16737 141.71611 
L 114.158929 140.634265 
L 119.150487 137.659191 
L 124.142045 136.442115 
L 129.133604 135.765962 
L 134.125162 133.872733 
L 139.116721 133.467041 
L 144.108279 131.709043 
L 149.099838 131.03289 
L 154.091396 128.193046 
L 159.082955 126.705509 
L 164.074513 126.096971 
L 169.066071 124.67705 
L 174.05763 123.865666 
L 179.049188 120.552515 
L 184.040747 120.146823 
L 189.032305 118.591671 
L 194.023864 116.563211 
L 199.015422 114.602367 
L 204.006981 114.534752 
L 208.998539 113.317676 
L 213.990097 112.506292 
L 218.981656 111.018755 
L 223.973214 111.627293 
L 228.964773 110.139756 
" style="fill:none;opacity:0.7;stroke:#ff7f0e;stroke-dasharray:1.4,2.31;stroke-dashoffset:0;stroke-width:1.4;"/>
   </g>
   <g id="line2d_19">
    <path clip-path="url(#p16e6e7b3aa)" d="M 64.243344 98.861024 
L 69.234903 94.28905 
L 74.226461 92.587851 
L 79.218019 87.856389 
L 84.209578 85.94254 
L 89.201136 81.211079 
L 94.192695 79.031417 
L 99.184253 76.373292 
L 104.175812 73.55568 
L 109.16737 71.057044 
L 114.158929 70.100119 
L 119.150487 67.495157 
L 124.142045 67.229345 
L 129.133604 64.677545 
L 134.125162 64.35857 
L 139.116721 63.561133 
L 144.108279 62.391558 
L 149.099838 60.903009 
L 154.091396 60.052409 
L 159.082955 58.457534 
L 164.074513 58.191722 
L 169.066071 57.447447 
L 174.05763 56.703172 
L 179.049188 56.756335 
L 184.040747 55.58676 
L 189.032305 55.37411 
L 194.023864 55.37411 
L 199.015422 54.94881 
L 204.006981 54.842485 
L 208.998539 54.52351 
L 213.990097 54.151373 
L 218.981656 53.300773 
L 223.973214 53.141286 
L 228.964773 52.875473 
" style="fill:none;opacity:0.5;stroke:#1f77b4;stroke-dasharray:1.4,2.31;stroke-dashoffset:0;stroke-width:1.4;"/>
   </g>
   <g id="line2d_20">
    <path clip-path="url(#p16e6e7b3aa)" d="M 64.243344 201.677273 
L 69.234903 184.027327 
L 74.226461 177.328854 
L 79.218019 169.407643 
L 84.209578 163.187633 
L 89.201136 156.489159 
L 94.192695 152.23616 
L 99.184253 148.142649 
L 104.175812 144.049137 
L 109.16737 142.028963 
L 114.158929 136.234252 
L 119.150487 134.90519 
L 124.142045 132.77869 
L 129.133604 130.918003 
L 134.125162 129.269966 
L 139.116721 129.163641 
L 144.108279 127.196629 
L 149.099838 125.442267 
L 154.091396 123.687905 
L 159.082955 123.15628 
L 164.074513 121.880381 
L 169.066071 120.391831 
L 174.05763 118.850119 
L 179.049188 118.052682 
L 184.040747 116.191995 
L 189.032305 115.394557 
L 194.023864 114.012333 
L 199.015422 113.587033 
L 204.006981 112.576946 
L 208.998539 111.247883 
L 213.990097 110.875746 
L 218.981656 109.706171 
L 223.973214 108.749246 
L 228.964773 108.642922 
" style="fill:none;opacity:0.5;stroke:#ff7f0e;stroke-dasharray:1.4,2.31;stroke-dashoffset:0;stroke-width:1.4;"/>
   </g>
   <g id="line2d_21">
    <path clip-path="url(#p16e6e7b3aa)" d="M 74.226461 96.867353 
L 79.218019 91.780807 
L 84.209578 88.07107 
L 89.201136 83.596439 
L 94.192695 80.91931 
L 99.184253 78.777606 
L 104.175812 73.461592 
L 109.16737 72.199516 
L 114.158929 70.554994 
L 119.150487 67.571907 
L 124.142045 65.544937 
L 129.133604 63.517968 
L 134.125162 62.179403 
L 139.116721 60.573125 
L 144.108279 59.081582 
L 149.099838 57.590038 
L 154.091396 56.748655 
L 159.082955 56.136739 
L 164.074513 55.754292 
L 169.066071 55.142377 
L 174.05763 54.224504 
L 179.049188 53.574344 
L 184.040747 52.80945 
L 189.032305 52.771205 
L 194.023864 52.388758 
L 199.015422 52.15929 
L 204.006981 51.50913 
L 208.998539 51.356151 
L 213.990097 50.973704 
L 218.981656 50.820725 
L 223.973214 50.323544 
L 228.964773 50.20881 
" style="fill:none;opacity:0.5;stroke:#1f77b4;stroke-dasharray:1.4,2.31;stroke-dashoffset:0;stroke-width:1.4;"/>
   </g>
   <g id="line2d_22">
    <path clip-path="url(#p16e6e7b3aa)" d="M 74.226461 193.93242 
L 79.218019 174.9248 
L 84.209578 167.352348 
L 89.201136 159.473939 
L 94.192695 151.136592 
L 99.184253 147.006164 
L 104.175812 142.493289 
L 109.16737 141.231213 
L 114.158929 136.182912 
L 119.150487 133.658761 
L 124.142045 131.555302 
L 129.133604 128.992907 
L 134.125162 126.621735 
L 139.116721 125.895086 
L 144.108279 123.562158 
L 149.099838 122.223594 
L 154.091396 119.852422 
L 159.082955 118.399123 
L 164.074513 117.175292 
L 169.066071 115.377791 
L 174.05763 114.498163 
L 179.049188 112.777151 
L 184.040747 111.668054 
L 189.032305 110.138266 
L 194.023864 108.876191 
L 199.015422 108.226031 
L 204.006981 106.887466 
L 208.998539 106.007838 
L 213.990097 105.548901 
L 218.981656 104.669273 
L 223.973214 104.286826 
L 228.964773 103.521932 
" style="fill:none;opacity:0.5;stroke:#ff7f0e;stroke-dasharray:1.4,2.31;stroke-dashoffset:0;stroke-width:1.4;"/>
   </g>
   <g id="line2d_23">
    <path clip-path="url(#p16e6e7b3aa)" d="M 84.209578 84.64057 
L 89.201136 78.847922 
L 94.192695 76.626907 
L 99.184253 72.665096 
L 104.175812 69.333574 
L 109.16737 67.472723 
L 114.158929 64.891544 
L 119.150487 63.090721 
L 124.142045 61.560021 
L 129.133604 60.539555 
L 134.125162 59.158924 
L 139.116721 57.568197 
L 144.108279 56.667785 
L 149.099838 54.476784 
L 154.091396 54.236674 
L 159.082955 53.366276 
L 164.074513 52.615933 
L 169.066071 51.985645 
L 174.05763 50.755083 
L 179.049188 50.334891 
L 184.040747 49.584548 
L 189.032305 49.704603 
L 194.023864 49.104328 
L 199.015422 49.044301 
L 204.006981 48.594095 
L 208.998539 48.353985 
L 213.990097 47.90378 
L 218.981656 47.723697 
L 223.973214 47.513601 
L 228.964773 47.18345 
" style="fill:none;opacity:0.5;stroke:#1f77b4;stroke-dasharray:1.4,2.31;stroke-dashoffset:0;stroke-width:1.4;"/>
   </g>
   <g id="line2d_24">
    <path clip-path="url(#p16e6e7b3aa)" d="M 84.209578 186.627181 
L 89.201136 172.070528 
L 94.192695 159.104602 
L 99.184253 148.74987 
L 104.175812 147.21917 
L 109.16737 142.627072 
L 114.158929 136.024054 
L 119.150487 134.253244 
L 124.142045 130.591571 
L 129.133604 128.760734 
L 134.125162 125.669321 
L 139.116721 123.778457 
L 144.108279 121.857579 
L 149.099838 118.916235 
L 154.091396 117.895769 
L 159.082955 115.854836 
L 164.074513 113.903944 
L 169.066071 112.82345 
L 174.05763 112.343231 
L 179.049188 110.72249 
L 184.040747 109.311845 
L 189.032305 108.471461 
L 194.023864 105.860268 
L 199.015422 105.199966 
L 204.006981 104.359582 
L 208.998539 103.759308 
L 213.990097 102.858896 
L 218.981656 101.958485 
L 223.973214 101.59832 
L 228.964773 100.968032 
" style="fill:none;opacity:0.5;stroke:#ff7f0e;stroke-dasharray:1.4,2.31;stroke-dashoffset:0;stroke-width:1.4;"/>
   </g>
   <g id="line2d_25">
    <path clip-path="url(#p16e6e7b3aa)" d="M 94.192695 83.244411 
L 99.184253 78.931989 
L 104.175812 74.365896 
L 109.16737 69.820943 
L 114.158929 66.734602 
L 119.150487 64.980039 
L 124.142045 63.352311 
L 129.133604 60.942428 
L 134.125162 59.293562 
L 139.116721 58.067481 
L 144.108279 56.693425 
L 149.099838 55.509623 
L 154.091396 54.621772 
L 159.082955 53.860756 
L 164.074513 52.82493 
L 169.066071 52.655815 
L 174.05763 51.725685 
L 179.049188 50.563023 
L 184.040747 49.886564 
L 189.032305 49.654032 
L 194.023864 49.210106 
L 199.015422 48.808459 
L 204.006981 48.745041 
L 208.998539 48.406812 
L 213.990097 48.068583 
L 218.981656 47.920608 
L 223.973214 47.666936 
L 228.964773 47.434403 
" style="fill:none;opacity:0.5;stroke:#1f77b4;stroke-dasharray:1.4,2.31;stroke-dashoffset:0;stroke-width:1.4;"/>
   </g>
   <g id="line2d_26">
    <path clip-path="url(#p16e6e7b3aa)" d="M 94.192695 185.199348 
L 99.184253 168.013082 
L 104.175812 155.32949 
L 109.16737 147.677056 
L 114.158929 141.863743 
L 119.150487 136.874864 
L 124.142045 132.625861 
L 129.133604 130.385093 
L 134.125162 127.256474 
L 139.116721 124.994566 
L 144.108279 122.774938 
L 149.099838 120.639867 
L 154.091396 118.885303 
L 159.082955 116.602257 
L 164.074513 115.037947 
L 169.066071 113.642752 
L 174.05763 111.888188 
L 179.049188 109.943371 
L 184.040747 108.949823 
L 189.032305 107.322095 
L 194.023864 106.032597 
L 199.015422 105.250442 
L 204.006981 103.939804 
L 208.998539 103.115371 
L 213.990097 101.529922 
L 218.981656 101.149414 
L 223.973214 100.620931 
L 228.964773 99.648522 
" style="fill:none;opacity:0.5;stroke:#ff7f0e;stroke-dasharray:1.4,2.31;stroke-dashoffset:0;stroke-width:1.4;"/>
   </g>
   <g id="line2d_27">
    <path clip-path="url(#p16e6e7b3aa)" d="M 104.175812 73.711311 
L 109.16737 68.013251 
L 114.158929 65.124541 
L 119.150487 62.219959 
L 124.142045 60.505779 
L 129.133604 57.966254 
L 134.125162 56.633003 
L 139.116721 54.839464 
L 144.108279 53.157028 
L 149.099838 52.07773 
L 154.091396 51.22064 
L 159.082955 50.077854 
L 164.074513 48.871579 
L 169.066071 48.220826 
L 174.05763 46.919319 
L 179.049188 46.268566 
L 184.040747 45.617812 
L 189.032305 45.236884 
L 194.023864 44.617874 
L 199.015422 44.395666 
L 204.006981 44.030609 
L 208.998539 43.713169 
L 213.990097 43.363984 
L 218.981656 43.173519 
L 223.973214 43.030671 
L 228.964773 42.903695 
" style="fill:none;opacity:0.5;stroke:#1f77b4;stroke-dasharray:1.4,2.31;stroke-dashoffset:0;stroke-width:1.4;"/>
   </g>
   <g id="line2d_28">
    <path clip-path="url(#p16e6e7b3aa)" d="M 104.175812 178.117543 
L 109.16737 166.92776 
L 114.158929 153.182579 
L 119.150487 148.73841 
L 124.142045 141.405531 
L 129.133604 139.310423 
L 134.125162 133.342538 
L 139.116721 130.993477 
L 144.108279 127.914303 
L 149.099838 124.803385 
L 154.091396 122.613044 
L 159.082955 120.390959 
L 164.074513 117.613354 
L 169.066071 115.803942 
L 174.05763 113.99453 
L 179.049188 112.185118 
L 184.040747 110.391579 
L 189.032305 108.756759 
L 194.023864 107.534613 
L 199.015422 105.995026 
L 204.006981 105.042704 
L 208.998539 103.963405 
L 213.990097 103.106316 
L 218.981656 102.487306 
L 223.973214 101.931785 
L 228.964773 101.154056 
" style="fill:none;opacity:0.5;stroke:#ff7f0e;stroke-dasharray:1.4,2.31;stroke-dashoffset:0;stroke-width:1.4;"/>
   </g>
   <g id="line2d_29">
    <path clip-path="url(#p16e6e7b3aa)" d="M 114.158929 63.164052 
L 119.150487 60.298796 
L 124.142045 57.293771 
L 129.133604 54.440163 
L 134.125162 52.867766 
L 139.116721 50.654764 
L 144.108279 49.699679 
L 149.099838 48.069045 
L 154.091396 47.370202 
L 159.082955 46.40347 
L 164.074513 45.401795 
L 169.066071 44.481652 
L 174.05763 44.039051 
L 179.049188 43.445035 
L 184.040747 42.874313 
L 189.032305 42.583129 
L 194.023864 42.280297 
L 199.015422 41.977465 
L 204.006981 41.581454 
L 208.998539 41.336859 
L 213.990097 41.127206 
L 218.981656 40.824374 
L 223.973214 40.556484 
L 228.964773 40.370126 
" style="fill:none;opacity:0.5;stroke:#1f77b4;stroke-dasharray:1.4,2.31;stroke-dashoffset:0;stroke-width:1.4;"/>
   </g>
   <g id="line2d_30">
    <path clip-path="url(#p16e6e7b3aa)" d="M 114.158929 182.363353 
L 119.150487 162.201736 
L 124.142045 151.392966 
L 129.133604 144.800548 
L 134.125162 138.534257 
L 139.116721 135.144869 
L 144.108279 131.790423 
L 149.099838 127.655603 
L 154.091396 124.801994 
L 159.082955 120.725411 
L 164.074513 118.046513 
L 169.066071 115.996574 
L 174.05763 113.21285 
L 179.049188 110.976552 
L 184.040747 109.217798 
L 189.032305 107.097974 
L 194.023864 105.863352 
L 199.015422 104.116245 
L 204.006981 102.869975 
L 208.998539 102.194427 
L 213.990097 100.540499 
L 218.981656 99.888245 
L 223.973214 99.46894 
L 228.964773 98.641976 
" style="fill:none;opacity:0.5;stroke:#ff7f0e;stroke-dasharray:1.4,2.31;stroke-dashoffset:0;stroke-width:1.4;"/>
   </g>
   <g id="line2d_31">
    <path clip-path="url(#p16e6e7b3aa)" d="M 124.142045 57.758609 
L 129.133604 54.660489 
L 134.125162 52.658246 
L 139.116721 50.450012 
L 144.108279 48.637282 
L 149.099838 46.956387 
L 154.091396 45.745154 
L 159.082955 45.003583 
L 164.074513 43.767631 
L 169.066071 43.001341 
L 174.05763 41.954901 
L 179.049188 41.312206 
L 184.040747 40.68599 
L 189.032305 40.241048 
L 194.023864 39.91146 
L 199.015422 39.590113 
L 204.006981 39.285245 
L 208.998539 39.103972 
L 213.990097 38.757905 
L 218.981656 38.617831 
L 223.973214 38.518954 
L 228.964773 38.345921 
" style="fill:none;opacity:0.5;stroke:#1f77b4;stroke-dasharray:1.4,2.31;stroke-dashoffset:0;stroke-width:1.4;"/>
   </g>
   <g id="line2d_32">
    <path clip-path="url(#p16e6e7b3aa)" d="M 124.142045 183.08415 
L 129.133604 165.896177 
L 134.125162 153.841524 
L 139.116721 148.180863 
L 144.108279 141.976384 
L 149.099838 136.513476 
L 154.091396 132.855057 
L 159.082955 128.702258 
L 164.074513 125.233353 
L 169.066071 121.822125 
L 174.05763 118.427377 
L 179.049188 115.403414 
L 184.040747 112.873832 
L 189.032305 110.228895 
L 194.023864 108.358487 
L 199.015422 107.073097 
L 204.006981 105.647632 
L 208.998539 104.024415 
L 213.990097 103.035653 
L 218.981656 102.013933 
L 223.973214 101.255882 
L 228.964773 100.745022 
" style="fill:none;opacity:0.5;stroke:#ff7f0e;stroke-dasharray:1.4,2.31;stroke-dashoffset:0;stroke-width:1.4;"/>
   </g>
   <g id="line2d_33">
    <path clip-path="url(#p16e6e7b3aa)" d="M 134.125162 53.263427 
L 139.116721 50.056831 
L 144.108279 48.124651 
L 149.099838 46.377467 
L 154.091396 45.246936 
L 159.082955 43.890299 
L 164.074513 42.698103 
L 169.066071 41.588128 
L 174.05763 40.731665 
L 179.049188 39.923164 
L 184.040747 39.443545 
L 189.032305 39.011888 
L 194.023864 38.689858 
L 199.015422 38.278756 
L 204.006981 38.01154 
L 208.998539 37.874506 
L 213.990097 37.593586 
L 218.981656 37.504514 
L 223.973214 37.298963 
L 228.964773 37.203039 
" style="fill:none;opacity:0.5;stroke:#1f77b4;stroke-dasharray:1.4,2.31;stroke-dashoffset:0;stroke-width:1.4;"/>
   </g>
   <g id="line2d_34">
    <path clip-path="url(#p16e6e7b3aa)" d="M 134.125162 176.813307 
L 139.116721 165.562813 
L 144.108279 154.812493 
L 149.099838 143.68533 
L 154.091396 138.423224 
L 159.082955 132.68835 
L 164.074513 127.700311 
L 169.066071 122.869861 
L 174.05763 118.498476 
L 179.049188 114.976701 
L 184.040747 111.74955 
L 189.032305 108.577212 
L 194.023864 106.323003 
L 199.015422 104.78137 
L 204.006981 102.828635 
L 208.998539 101.389778 
L 213.990097 99.95092 
L 218.981656 98.614839 
L 223.973214 97.991334 
L 228.964773 97.347274 
" style="fill:none;opacity:0.5;stroke:#ff7f0e;stroke-dasharray:1.4,2.31;stroke-dashoffset:0;stroke-width:1.4;"/>
   </g>
   <g id="line2d_35">
    <path clip-path="url(#p16e6e7b3aa)" d="M 144.108279 51.032843 
L 149.099838 48.129328 
L 154.091396 46.455928 
L 159.082955 44.760363 
L 164.074513 43.253195 
L 169.066071 42.172689 
L 174.05763 41.175298 
L 179.049188 40.388467 
L 184.040747 39.529603 
L 189.032305 38.986579 
L 194.023864 38.482343 
L 199.015422 38.116633 
L 204.006981 37.78417 
L 208.998539 37.47387 
L 213.990097 37.21344 
L 218.981656 37.069373 
L 223.973214 36.880977 
L 228.964773 36.808943 
" style="fill:none;opacity:0.5;stroke:#1f77b4;stroke-dasharray:1.4,2.31;stroke-dashoffset:0;stroke-width:1.4;"/>
   </g>
   <g id="line2d_36">
    <path clip-path="url(#p16e6e7b3aa)" d="M 144.108279 178.322062 
L 149.099838 160.651623 
L 154.091396 154.839051 
L 159.082955 143.058759 
L 164.074513 136.065942 
L 169.066071 129.771298 
L 174.05763 123.576394 
L 179.049188 119.647783 
L 184.040747 115.469824 
L 189.032305 112.31142 
L 194.023864 109.014489 
L 199.015422 106.864558 
L 204.006981 104.698004 
L 208.998539 103.146507 
L 213.990097 101.428779 
L 218.981656 100.02135 
L 223.973214 98.946384 
L 228.964773 98.364573 
" style="fill:none;opacity:0.5;stroke:#ff7f0e;stroke-dasharray:1.4,2.31;stroke-dashoffset:0;stroke-width:1.4;"/>
   </g>
   <g id="line2d_37">
    <path clip-path="url(#p16e6e7b3aa)" d="M 54.260227 105.60953 
L 59.251786 103.199424 
L 64.243344 97.208771 
L 69.234903 92.738986 
L 74.226461 92.628017 
L 79.218019 89.267943 
L 84.209578 84.806956 
L 89.201136 81.70472 
L 94.192695 79.43585 
L 99.184253 76.59603 
L 104.175812 72.520425 
L 109.16737 69.275143 
L 114.158929 65.677573 
L 119.150487 62.825567 
L 124.142045 59.942771 
L 129.133604 57.284408 
L 134.125162 55.158357 
L 139.116721 52.936434 
L 144.108279 51.171077 
L 149.099838 49.521314 
L 154.091396 48.35333 
L 159.082955 47.181341 
L 164.074513 45.577983 
L 169.066071 44.365709 
L 174.05763 42.995391 
L 179.049188 41.829311 
L 184.040747 40.74158 
L 189.032305 39.998774 
L 194.023864 39.244057 
L 199.015422 38.681905 
L 204.006981 38.025082 
L 208.998539 37.505386 
L 213.990097 36.996134 
L 218.981656 36.47735 
L 223.973214 36.024651 
L 228.964773 35.661336 
" style="fill:none;opacity:0.9;stroke:#1f77b4;stroke-linecap:square;stroke-width:1.4;"/>
   </g>
   <g id="line2d_38">
    <path clip-path="url(#p16e6e7b3aa)" d="M 54.260227 199.527207 
L 59.251786 197.297319 
L 64.243344 189.782549 
L 69.234903 186.129855 
L 74.226461 180.006316 
L 79.218019 173.744138 
L 84.209578 168.420905 
L 89.201136 166.301874 
L 94.192695 160.768377 
L 99.184253 158.723461 
L 104.175812 154.756115 
L 109.16737 154.802673 
L 114.158929 151.288254 
L 119.150487 150.189665 
L 124.142045 148.945513 
L 129.133604 148.312245 
L 134.125162 145.487389 
L 139.116721 146.412017 
L 144.108279 144.400526 
L 149.099838 142.923301 
L 154.091396 143.49099 
L 159.082955 141.393273 
L 164.074513 139.389184 
L 169.066071 137.480603 
L 174.05763 135.834956 
L 179.049188 135.118497 
L 184.040747 133.994242 
L 189.032305 132.706895 
L 194.023864 130.728126 
L 199.015422 129.971274 
L 204.006981 128.332857 
L 208.998539 127.136766 
L 213.990097 125.313523 
L 218.981656 123.323822 
L 223.973214 122.835204 
L 228.964773 122.280689 
" style="fill:none;opacity:0.9;stroke:#ff7f0e;stroke-linecap:square;stroke-width:1.4;"/>
   </g>
   <g id="line2d_39">
    <path clip-path="url(#p16e6e7b3aa)" d="M 54.260227 96.549077 
L 59.251786 92.479801 
L 64.243344 85.95455 
L 69.234903 81.087247 
L 74.226461 80.47095 
L 79.218019 75.570993 
L 84.209578 71.989362 
L 89.201136 69.952205 
L 94.192695 67.336062 
L 99.184253 65.06139 
L 104.175812 61.659417 
L 109.16737 59.32861 
L 114.158929 56.204182 
L 119.150487 54.161738 
L 124.142045 51.994653 
L 129.133604 49.883311 
L 134.125162 48.141549 
L 139.116721 46.612723 
L 144.108279 45.241217 
L 149.099838 44.024949 
L 154.091396 43.191665 
L 159.082955 42.278089 
L 164.074513 40.954445 
L 169.066071 40.036928 
L 174.05763 38.910476 
L 179.049188 37.989535 
L 184.040747 37.124192 
L 189.032305 36.517727 
L 194.023864 35.922645 
L 199.015422 35.480107 
L 204.006981 34.958247 
L 208.998539 34.574226 
L 213.990097 34.189927 
L 218.981656 33.796029 
L 223.973214 33.483235 
L 228.964773 33.222727 
" style="fill:none;stroke:#2ca02c;stroke-linecap:square;stroke-width:1.4;"/>
   </g>
   <g id="patch_3">
    <path d="M 45.525 210.1 
L 45.525 24.8 
" style="fill:none;stroke:#000000;stroke-linecap:square;stroke-linejoin:miter;stroke-width:0.8;"/>
   </g>
   <g id="patch_4">
    <path d="M 237.7 210.1 
L 237.7 24.8 
" style="fill:none;stroke:#000000;stroke-linecap:square;stroke-linejoin:miter;stroke-width:0.8;"/>
   </g>
   <g id="patch_5">
    <path d="M 45.525 210.1 
L 237.7 210.1 
" style="fill:none;stroke:#000000;stroke-linecap:square;stroke-linejoin:miter;stroke-width:0.8;"/>
   </g>
   <g id="patch_6">
    <path d="M 45.525 24.8 
L 237.7 24.8 
" style="fill:none;stroke:#000000;stroke-linecap:square;stroke-linejoin:miter;stroke-width:0.8;"/>
   </g>
   <g id="text_19">
    <!-- Fraction of Alive Publications -->
    <g transform="translate(72.23525 18.8)scale(0.096 -0.096)">
     <use xlink:href="#DejaVuSans-46"/>
     <use x="57.410156" xlink:href="#DejaVuSans-72"/>
     <use x="98.523438" xlink:href="#DejaVuSans-61"/>
     <use x="159.802734" xlink:href="#DejaVuSans-63"/>
     <use x="214.783203" xlink:href="#DejaVuSans-74"/>
     <use x="253.992188" xlink:href="#DejaVuSans-69"/>
     <use x="281.775391" xlink:href="#DejaVuSans-6f"/>
     <use x="342.957031" xlink:href="#DejaVuSans-6e"/>
     <use x="406.335938" xlink:href="#DejaVuSans-20"/>
     <use x="438.123047" xlink:href="#DejaVuSans-6f"/>
     <use x="499.304688" xlink:href="#DejaVuSans-66"/>
     <use x="534.509766" xlink:href="#DejaVuSans-20"/>
     <use x="566.296875" xlink:href="#DejaVuSans-41"/>
     <use x="634.705078" xlink:href="#DejaVuSans-6c"/>
     <use x="662.488281" xlink:href="#DejaVuSans-69"/>
     <use x="690.271484" xlink:href="#DejaVuSans-76"/>
     <use x="749.451172" xlink:href="#DejaVuSans-65"/>
     <use x="810.974609" xlink:href="#DejaVuSans-20"/>
     <use x="842.761719" xlink:href="#DejaVuSans-50"/>
     <use x="903.048828" xlink:href="#DejaVuSans-75"/>
     <use x="966.427734" xlink:href="#DejaVuSans-62"/>
     <use x="1029.904297" xlink:href="#DejaVuSans-6c"/>
     <use x="1057.6875" xlink:href="#DejaVuSans-69"/>
     <use x="1085.470703" xlink:href="#DejaVuSans-63"/>
     <use x="1140.451172" xlink:href="#DejaVuSans-61"/>
     <use x="1201.730469" xlink:href="#DejaVuSans-74"/>
     <use x="1240.939453" xlink:href="#DejaVuSans-69"/>
     <use x="1268.722656" xlink:href="#DejaVuSans-6f"/>
     <use x="1329.904297" xlink:href="#DejaVuSans-6e"/>
     <use x="1393.283203" xlink:href="#DejaVuSans-73"/>
    </g>
   </g>
   <g id="legend_1">
    <g id="patch_7">
     <path d="M 155.62875 206.1 
L 232.1 206.1 
Q 233.7 206.1 233.7 204.5 
L 233.7 170.0725 
Q 233.7 168.4725 232.1 168.4725 
L 155.62875 168.4725 
Q 154.02875 168.4725 154.02875 170.0725 
L 154.02875 204.5 
Q 154.02875 206.1 155.62875 206.1 
z
" style="fill:#ffffff;opacity:0.8;stroke:#cccccc;stroke-linejoin:miter;stroke-width:0.24;"/>
    </g>
    <g id="line2d_40">
     <path d="M 157.22875 174.95125 
L 173.22875 174.95125 
" style="fill:none;opacity:0.9;stroke:#1f77b4;stroke-linecap:square;stroke-width:1.4;"/>
    </g>
    <g id="line2d_41"/>
    <g id="text_20">
     <!-- Replication -->
     <defs>
      <path d="M 44.390625 34.1875 
Q 47.5625 33.109375 50.5625 29.59375 
Q 53.5625 26.078125 56.59375 19.921875 
L 66.609375 0 
L 56 0 
L 46.6875 18.703125 
Q 43.0625 26.03125 39.671875 28.421875 
Q 36.28125 30.8125 30.421875 30.8125 
L 19.671875 30.8125 
L 19.671875 0 
L 9.8125 0 
L 9.8125 72.90625 
L 32.078125 72.90625 
Q 44.578125 72.90625 50.734375 67.671875 
Q 56.890625 62.453125 56.890625 51.90625 
Q 56.890625 45.015625 53.6875 40.46875 
Q 50.484375 35.9375 44.390625 34.1875 
z
M 19.671875 64.796875 
L 19.671875 38.921875 
L 32.078125 38.921875 
Q 39.203125 38.921875 42.84375 42.21875 
Q 46.484375 45.515625 46.484375 51.90625 
Q 46.484375 58.296875 42.84375 61.546875 
Q 39.203125 64.796875 32.078125 64.796875 
z
" id="DejaVuSans-52"/>
      <path d="M 18.109375 8.203125 
L 18.109375 -20.796875 
L 9.078125 -20.796875 
L 9.078125 54.6875 
L 18.109375 54.6875 
L 18.109375 46.390625 
Q 20.953125 51.265625 25.265625 53.625 
Q 29.59375 56 35.59375 56 
Q 45.5625 56 51.78125 48.09375 
Q 58.015625 40.1875 58.015625 27.296875 
Q 58.015625 14.40625 51.78125 6.484375 
Q 45.5625 -1.421875 35.59375 -1.421875 
Q 29.59375 -1.421875 25.265625 0.953125 
Q 20.953125 3.328125 18.109375 8.203125 
z
M 48.6875 27.296875 
Q 48.6875 37.203125 44.609375 42.84375 
Q 40.53125 48.484375 33.40625 48.484375 
Q 26.265625 48.484375 22.1875 42.84375 
Q 18.109375 37.203125 18.109375 27.296875 
Q 18.109375 17.390625 22.1875 11.75 
Q 26.265625 6.109375 33.40625 6.109375 
Q 40.53125 6.109375 44.609375 11.75 
Q 48.6875 17.390625 48.6875 27.296875 
z
" id="DejaVuSans-70"/>
     </defs>
     <g transform="translate(179.62875 177.75125)scale(0.08 -0.08)">
      <use xlink:href="#DejaVuSans-52"/>
      <use x="69.419922" xlink:href="#DejaVuSans-65"/>
      <use x="130.943359" xlink:href="#DejaVuSans-70"/>
      <use x="194.419922" xlink:href="#DejaVuSans-6c"/>
      <use x="222.203125" xlink:href="#DejaVuSans-69"/>
      <use x="249.986328" xlink:href="#DejaVuSans-63"/>
      <use x="304.966797" xlink:href="#DejaVuSans-61"/>
      <use x="366.246094" xlink:href="#DejaVuSans-74"/>
      <use x="405.455078" xlink:href="#DejaVuSans-69"/>
      <use x="433.238281" xlink:href="#DejaVuSans-6f"/>
      <use x="494.419922" xlink:href="#DejaVuSans-6e"/>
     </g>
    </g>
    <g id="line2d_42">
     <path d="M 157.22875 186.69375 
L 173.22875 186.69375 
" style="fill:none;opacity:0.9;stroke:#ff7f0e;stroke-linecap:square;stroke-width:1.4;"/>
    </g>
    <g id="line2d_43"/>
    <g id="text_21">
     <!-- Interaction -->
     <defs>
      <path d="M 9.8125 72.90625 
L 19.671875 72.90625 
L 19.671875 0 
L 9.8125 0 
z
" id="DejaVuSans-49"/>
     </defs>
     <g transform="translate(179.62875 189.49375)scale(0.08 -0.08)">
      <use xlink:href="#DejaVuSans-49"/>
      <use x="29.492188" xlink:href="#DejaVuSans-6e"/>
      <use x="92.871094" xlink:href="#DejaVuSans-74"/>
      <use x="132.080078" xlink:href="#DejaVuSans-65"/>
      <use x="193.603516" xlink:href="#DejaVuSans-72"/>
      <use x="234.716797" xlink:href="#DejaVuSans-61"/>
      <use x="295.996094" xlink:href="#DejaVuSans-63"/>
      <use x="350.976562" xlink:href="#DejaVuSans-74"/>
      <use x="390.185547" xlink:href="#DejaVuSans-69"/>
      <use x="417.96875" xlink:href="#DejaVuSans-6f"/>
      <use x="479.150391" xlink:href="#DejaVuSans-6e"/>
     </g>
    </g>
    <g id="line2d_44">
     <path d="M 157.22875 198.43625 
L 173.22875 198.43625 
" style="fill:none;stroke:#2ca02c;stroke-linecap:square;stroke-width:1.4;"/>
    </g>
    <g id="line2d_45"/>
    <g id="text_22">
     <!-- Combination -->
     <defs>
      <path d="M 64.40625 67.28125 
L 64.40625 56.890625 
Q 59.421875 61.53125 53.78125 63.8125 
Q 48.140625 66.109375 41.796875 66.109375 
Q 29.296875 66.109375 22.65625 58.46875 
Q 16.015625 50.828125 16.015625 36.375 
Q 16.015625 21.96875 22.65625 14.328125 
Q 29.296875 6.6875 41.796875 6.6875 
Q 48.140625 6.6875 53.78125 8.984375 
Q 59.421875 11.28125 64.40625 15.921875 
L 64.40625 5.609375 
Q 59.234375 2.09375 53.4375 0.328125 
Q 47.65625 -1.421875 41.21875 -1.421875 
Q 24.65625 -1.421875 15.125 8.703125 
Q 5.609375 18.84375 5.609375 36.375 
Q 5.609375 53.953125 15.125 64.078125 
Q 24.65625 74.21875 41.21875 74.21875 
Q 47.75 74.21875 53.53125 72.484375 
Q 59.328125 70.75 64.40625 67.28125 
z
" id="DejaVuSans-43"/>
      <path d="M 52 44.1875 
Q 55.375 50.25 60.0625 53.125 
Q 64.75 56 71.09375 56 
Q 79.640625 56 84.28125 50.015625 
Q 88.921875 44.046875 88.921875 33.015625 
L 88.921875 0 
L 79.890625 0 
L 79.890625 32.71875 
Q 79.890625 40.578125 77.09375 44.375 
Q 74.3125 48.1875 68.609375 48.1875 
Q 61.625 48.1875 57.5625 43.546875 
Q 53.515625 38.921875 53.515625 30.90625 
L 53.515625 0 
L 44.484375 0 
L 44.484375 32.71875 
Q 44.484375 40.625 41.703125 44.40625 
Q 38.921875 48.1875 33.109375 48.1875 
Q 26.21875 48.1875 22.15625 43.53125 
Q 18.109375 38.875 18.109375 30.90625 
L 18.109375 0 
L 9.078125 0 
L 9.078125 54.6875 
L 18.109375 54.6875 
L 18.109375 46.1875 
Q 21.1875 51.21875 25.484375 53.609375 
Q 29.78125 56 35.6875 56 
Q 41.65625 56 45.828125 52.96875 
Q 50 49.953125 52 44.1875 
z
" id="DejaVuSans-6d"/>
     </defs>
     <g transform="translate(179.62875 201.23625)scale(0.08 -0.08)">
      <use xlink:href="#DejaVuSans-43"/>
      <use x="69.824219" xlink:href="#DejaVuSans-6f"/>
      <use x="131.005859" xlink:href="#DejaVuSans-6d"/>
      <use x="228.417969" xlink:href="#DejaVuSans-62"/>
      <use x="291.894531" xlink:href="#DejaVuSans-69"/>
      <use x="319.677734" xlink:href="#DejaVuSans-6e"/>
      <use x="383.056641" xlink:href="#DejaVuSans-61"/>
      <use x="444.335938" xlink:href="#DejaVuSans-74"/>
      <use x="483.544922" xlink:href="#DejaVuSans-69"/>
      <use x="511.328125" xlink:href="#DejaVuSans-6f"/>
      <use x="572.509766" xlink:href="#DejaVuSans-6e"/>
     </g>
    </g>
   </g>
  </g>
 </g>
 <defs>
  <clipPath id="p16e6e7b3aa">
   <rect height="185.3" width="192.175" x="45.525" y="24.8"/>
  </clipPath>
 </defs>
</svg>
