<?xml version="1.0" encoding="utf-8" standalone="no"?>
<!DOCTYPE svg PUBLIC "-//W3C//DTD SVG 1.1//EN"
  "http://www.w3.org/Graphics/SVG/1.1/DTD/svg11.dtd">
<!-- Created with matplotlib (http://matplotlib.org/) -->
<svg height="252pt" version="1.1" viewBox="0 0 252 252" width="252pt" xmlns="http://www.w3.org/2000/svg" xmlns:xlink="http://www.w3.org/1999/xlink">
 <defs>
  <style type="text/css">
*{stroke-linecap:butt;stroke-linejoin:round;}
  </style>
 </defs>
 <g id="figure_1">
  <g id="patch_1">
   <path d="M 0 252 
L 252 252 
L 252 0 
L 0 0 
z
" style="fill:#ffffff;"/>
  </g>
  <g id="axes_1">
   <g id="patch_2">
    <path d="M 49.525 210.1 
L 229.857813 210.1 
L 229.857813 24.8 
L 49.525 24.8 
z
" style="fill:#ffffff;"/>
   </g>
   <g id="matplotlib.axis_1">
    <g id="xtick_1">
     <g id="line2d_1">
      <defs>
       <path d="M 0 0 
L 0 3.5 
" id="m224da90fa9" style="stroke:#000000;stroke-width:0.8;"/>
      </defs>
      <g>
       <use style="stroke:#000000;stroke-width:0.8;" x="53.037977" xlink:href="#m224da90fa9" y="210.1"/>
      </g>
     </g>
     <g id="text_1">
      <!-- 1980 -->
      <defs>
       <path d="M 12.40625 8.296875 
L 28.515625 8.296875 
L 28.515625 63.921875 
L 10.984375 60.40625 
L 10.984375 69.390625 
L 28.421875 72.90625 
L 38.28125 72.90625 
L 38.28125 8.296875 
L 54.390625 8.296875 
L 54.390625 0 
L 12.40625 0 
z
" id="DejaVuSans-31"/>
       <path d="M 10.984375 1.515625 
L 10.984375 10.5 
Q 14.703125 8.734375 18.5 7.8125 
Q 22.3125 6.890625 25.984375 6.890625 
Q 35.75 6.890625 40.890625 13.453125 
Q 46.046875 20.015625 46.78125 33.40625 
Q 43.953125 29.203125 39.59375 26.953125 
Q 35.25 24.703125 29.984375 24.703125 
Q 19.046875 24.703125 12.671875 31.3125 
Q 6.296875 37.9375 6.296875 49.421875 
Q 6.296875 60.640625 12.9375 67.421875 
Q 19.578125 74.21875 30.609375 74.21875 
Q 43.265625 74.21875 49.921875 64.515625 
Q 56.59375 54.828125 56.59375 36.375 
Q 56.59375 19.140625 48.40625 8.859375 
Q 40.234375 -1.421875 26.421875 -1.421875 
Q 22.703125 -1.421875 18.890625 -0.6875 
Q 15.09375 0.046875 10.984375 1.515625 
z
M 30.609375 32.421875 
Q 37.25 32.421875 41.125 36.953125 
Q 45.015625 41.5 45.015625 49.421875 
Q 45.015625 57.28125 41.125 61.84375 
Q 37.25 66.40625 30.609375 66.40625 
Q 23.96875 66.40625 20.09375 61.84375 
Q 16.21875 57.28125 16.21875 49.421875 
Q 16.21875 41.5 20.09375 36.953125 
Q 23.96875 32.421875 30.609375 32.421875 
z
" id="DejaVuSans-39"/>
       <path d="M 31.78125 34.625 
Q 24.75 34.625 20.71875 30.859375 
Q 16.703125 27.09375 16.703125 20.515625 
Q 16.703125 13.921875 20.71875 10.15625 
Q 24.75 6.390625 31.78125 6.390625 
Q 38.8125 6.390625 42.859375 10.171875 
Q 46.921875 13.96875 46.921875 20.515625 
Q 46.921875 27.09375 42.890625 30.859375 
Q 38.875 34.625 31.78125 34.625 
z
M 21.921875 38.8125 
Q 15.578125 40.375 12.03125 44.71875 
Q 8.5 49.078125 8.5 55.328125 
Q 8.5 64.0625 14.71875 69.140625 
Q 20.953125 74.21875 31.78125 74.21875 
Q 42.671875 74.21875 48.875 69.140625 
Q 55.078125 64.0625 55.078125 55.328125 
Q 55.078125 49.078125 51.53125 44.71875 
Q 48 40.375 41.703125 38.8125 
Q 48.828125 37.15625 52.796875 32.3125 
Q 56.78125 27.484375 56.78125 20.515625 
Q 56.78125 9.90625 50.3125 4.234375 
Q 43.84375 -1.421875 31.78125 -1.421875 
Q 19.734375 -1.421875 13.25 4.234375 
Q 6.78125 9.90625 6.78125 20.515625 
Q 6.78125 27.484375 10.78125 32.3125 
Q 14.796875 37.15625 21.921875 38.8125 
z
M 18.3125 54.390625 
Q 18.3125 48.734375 21.84375 45.5625 
Q 25.390625 42.390625 31.78125 42.390625 
Q 38.140625 42.390625 41.71875 45.5625 
Q 45.3125 48.734375 45.3125 54.390625 
Q 45.3125 60.0625 41.71875 63.234375 
Q 38.140625 66.40625 31.78125 66.40625 
Q 25.390625 66.40625 21.84375 63.234375 
Q 18.3125 60.0625 18.3125 54.390625 
z
" id="DejaVuSans-38"/>
       <path d="M 31.78125 66.40625 
Q 24.171875 66.40625 20.328125 58.90625 
Q 16.5 51.421875 16.5 36.375 
Q 16.5 21.390625 20.328125 13.890625 
Q 24.171875 6.390625 31.78125 6.390625 
Q 39.453125 6.390625 43.28125 13.890625 
Q 47.125 21.390625 47.125 36.375 
Q 47.125 51.421875 43.28125 58.90625 
Q 39.453125 66.40625 31.78125 66.40625 
z
M 31.78125 74.21875 
Q 44.046875 74.21875 50.515625 64.515625 
Q 56.984375 54.828125 56.984375 36.375 
Q 56.984375 17.96875 50.515625 8.265625 
Q 44.046875 -1.421875 31.78125 -1.421875 
Q 19.53125 -1.421875 13.0625 8.265625 
Q 6.59375 17.96875 6.59375 36.375 
Q 6.59375 54.828125 13.0625 64.515625 
Q 19.53125 74.21875 31.78125 74.21875 
z
" id="DejaVuSans-30"/>
      </defs>
      <g transform="translate(42.857977 225.27875)scale(0.08 -0.08)">
       <use xlink:href="#DejaVuSans-31"/>
       <use x="63.623047" xlink:href="#DejaVuSans-39"/>
       <use x="127.246094" xlink:href="#DejaVuSans-38"/>
       <use x="190.869141" xlink:href="#DejaVuSans-30"/>
      </g>
     </g>
    </g>
    <g id="xtick_2">
     <g id="line2d_2">
      <g>
       <use style="stroke:#000000;stroke-width:0.8;" x="99.877668" xlink:href="#m224da90fa9" y="210.1"/>
      </g>
     </g>
     <g id="text_2">
      <!-- 1990 -->
      <g transform="translate(89.697668 225.27875)scale(0.08 -0.08)">
       <use xlink:href="#DejaVuSans-31"/>
       <use x="63.623047" xlink:href="#DejaVuSans-39"/>
       <use x="127.246094" xlink:href="#DejaVuSans-39"/>
       <use x="190.869141" xlink:href="#DejaVuSans-30"/>
      </g>
     </g>
    </g>
    <g id="xtick_3">
     <g id="line2d_3">
      <g>
       <use style="stroke:#000000;stroke-width:0.8;" x="146.71736" xlink:href="#m224da90fa9" y="210.1"/>
      </g>
     </g>
     <g id="text_3">
      <!-- 2000 -->
      <defs>
       <path d="M 19.1875 8.296875 
L 53.609375 8.296875 
L 53.609375 0 
L 7.328125 0 
L 7.328125 8.296875 
Q 12.9375 14.109375 22.625 23.890625 
Q 32.328125 33.6875 34.8125 36.53125 
Q 39.546875 41.84375 41.421875 45.53125 
Q 43.3125 49.21875 43.3125 52.78125 
Q 43.3125 58.59375 39.234375 62.25 
Q 35.15625 65.921875 28.609375 65.921875 
Q 23.96875 65.921875 18.8125 64.3125 
Q 13.671875 62.703125 7.8125 59.421875 
L 7.8125 69.390625 
Q 13.765625 71.78125 18.9375 73 
Q 24.125 74.21875 28.421875 74.21875 
Q 39.75 74.21875 46.484375 68.546875 
Q 53.21875 62.890625 53.21875 53.421875 
Q 53.21875 48.921875 51.53125 44.890625 
Q 49.859375 40.875 45.40625 35.40625 
Q 44.1875 33.984375 37.640625 27.21875 
Q 31.109375 20.453125 19.1875 8.296875 
z
" id="DejaVuSans-32"/>
      </defs>
      <g transform="translate(136.53736 225.27875)scale(0.08 -0.08)">
       <use xlink:href="#DejaVuSans-32"/>
       <use x="63.623047" xlink:href="#DejaVuSans-30"/>
       <use x="127.246094" xlink:href="#DejaVuSans-30"/>
       <use x="190.869141" xlink:href="#DejaVuSans-30"/>
      </g>
     </g>
    </g>
    <g id="xtick_4">
     <g id="line2d_4">
      <g>
       <use style="stroke:#000000;stroke-width:0.8;" x="193.557052" xlink:href="#m224da90fa9" y="210.1"/>
      </g>
     </g>
     <g id="text_4">
      <!-- 2010 -->
      <g transform="translate(183.377052 225.27875)scale(0.08 -0.08)">
       <use xlink:href="#DejaVuSans-32"/>
       <use x="63.623047" xlink:href="#DejaVuSans-30"/>
       <use x="127.246094" xlink:href="#DejaVuSans-31"/>
       <use x="190.869141" xlink:href="#DejaVuSans-30"/>
      </g>
     </g>
    </g>
    <g id="text_5">
     <!-- Year -->
     <defs>
      <path d="M -0.203125 72.90625 
L 10.40625 72.90625 
L 30.609375 42.921875 
L 50.6875 72.90625 
L 61.28125 72.90625 
L 35.5 34.71875 
L 35.5 0 
L 25.59375 0 
L 25.59375 34.71875 
z
" id="DejaVuSans-59"/>
      <path d="M 56.203125 29.59375 
L 56.203125 25.203125 
L 14.890625 25.203125 
Q 15.484375 15.921875 20.484375 11.0625 
Q 25.484375 6.203125 34.421875 6.203125 
Q 39.59375 6.203125 44.453125 7.46875 
Q 49.3125 8.734375 54.109375 11.28125 
L 54.109375 2.78125 
Q 49.265625 0.734375 44.1875 -0.34375 
Q 39.109375 -1.421875 33.890625 -1.421875 
Q 20.796875 -1.421875 13.15625 6.1875 
Q 5.515625 13.8125 5.515625 26.8125 
Q 5.515625 40.234375 12.765625 48.109375 
Q 20.015625 56 32.328125 56 
Q 43.359375 56 49.78125 48.890625 
Q 56.203125 41.796875 56.203125 29.59375 
z
M 47.21875 32.234375 
Q 47.125 39.59375 43.09375 43.984375 
Q 39.0625 48.390625 32.421875 48.390625 
Q 24.90625 48.390625 20.390625 44.140625 
Q 15.875 39.890625 15.1875 32.171875 
z
" id="DejaVuSans-65"/>
      <path d="M 34.28125 27.484375 
Q 23.390625 27.484375 19.1875 25 
Q 14.984375 22.515625 14.984375 16.5 
Q 14.984375 11.71875 18.140625 8.90625 
Q 21.296875 6.109375 26.703125 6.109375 
Q 34.1875 6.109375 38.703125 11.40625 
Q 43.21875 16.703125 43.21875 25.484375 
L 43.21875 27.484375 
z
M 52.203125 31.203125 
L 52.203125 0 
L 43.21875 0 
L 43.21875 8.296875 
Q 40.140625 3.328125 35.546875 0.953125 
Q 30.953125 -1.421875 24.3125 -1.421875 
Q 15.921875 -1.421875 10.953125 3.296875 
Q 6 8.015625 6 15.921875 
Q 6 25.140625 12.171875 29.828125 
Q 18.359375 34.515625 30.609375 34.515625 
L 43.21875 34.515625 
L 43.21875 35.40625 
Q 43.21875 41.609375 39.140625 45 
Q 35.0625 48.390625 27.6875 48.390625 
Q 23 48.390625 18.546875 47.265625 
Q 14.109375 46.140625 10.015625 43.890625 
L 10.015625 52.203125 
Q 14.9375 54.109375 19.578125 55.046875 
Q 24.21875 56 28.609375 56 
Q 40.484375 56 46.34375 49.84375 
Q 52.203125 43.703125 52.203125 31.203125 
z
" id="DejaVuSans-61"/>
      <path d="M 41.109375 46.296875 
Q 39.59375 47.171875 37.8125 47.578125 
Q 36.03125 48 33.890625 48 
Q 26.265625 48 22.1875 43.046875 
Q 18.109375 38.09375 18.109375 28.8125 
L 18.109375 0 
L 9.078125 0 
L 9.078125 54.6875 
L 18.109375 54.6875 
L 18.109375 46.1875 
Q 20.953125 51.171875 25.484375 53.578125 
Q 30.03125 56 36.53125 56 
Q 37.453125 56 38.578125 55.875 
Q 39.703125 55.765625 41.0625 55.515625 
z
" id="DejaVuSans-72"/>
     </defs>
     <g transform="translate(129.800344 237.629125)scale(0.088 -0.088)">
      <use xlink:href="#DejaVuSans-59"/>
      <use x="60.880859" xlink:href="#DejaVuSans-65"/>
      <use x="122.404297" xlink:href="#DejaVuSans-61"/>
      <use x="183.683594" xlink:href="#DejaVuSans-72"/>
     </g>
    </g>
   </g>
   <g id="matplotlib.axis_2">
    <g id="ytick_1">
     <g id="line2d_5">
      <defs>
       <path d="M 0 0 
L -3.5 0 
" id="m0d68e8f00d" style="stroke:#000000;stroke-width:0.8;"/>
      </defs>
      <g>
       <use style="stroke:#000000;stroke-width:0.8;" x="49.525" xlink:href="#m0d68e8f00d" y="209.292055"/>
      </g>
     </g>
     <g id="text_6">
      <!-- 0.0 -->
      <defs>
       <path d="M 10.6875 12.40625 
L 21 12.40625 
L 21 0 
L 10.6875 0 
z
" id="DejaVuSans-2e"/>
      </defs>
      <g transform="translate(27.7025 212.33143)scale(0.08 -0.08)">
       <use xlink:href="#DejaVuSans-30"/>
       <use x="63.623047" xlink:href="#DejaVuSans-2e"/>
       <use x="95.410156" xlink:href="#DejaVuSans-30"/>
      </g>
     </g>
    </g>
    <g id="ytick_2">
     <g id="line2d_6">
      <g>
       <use style="stroke:#000000;stroke-width:0.8;" x="49.525" xlink:href="#m0d68e8f00d" y="170.218916"/>
      </g>
     </g>
     <g id="text_7">
      <!-- 0.5 -->
      <defs>
       <path d="M 10.796875 72.90625 
L 49.515625 72.90625 
L 49.515625 64.59375 
L 19.828125 64.59375 
L 19.828125 46.734375 
Q 21.96875 47.46875 24.109375 47.828125 
Q 26.265625 48.1875 28.421875 48.1875 
Q 40.625 48.1875 47.75 41.5 
Q 54.890625 34.8125 54.890625 23.390625 
Q 54.890625 11.625 47.5625 5.09375 
Q 40.234375 -1.421875 26.90625 -1.421875 
Q 22.3125 -1.421875 17.546875 -0.640625 
Q 12.796875 0.140625 7.71875 1.703125 
L 7.71875 11.625 
Q 12.109375 9.234375 16.796875 8.0625 
Q 21.484375 6.890625 26.703125 6.890625 
Q 35.15625 6.890625 40.078125 11.328125 
Q 45.015625 15.765625 45.015625 23.390625 
Q 45.015625 31 40.078125 35.4375 
Q 35.15625 39.890625 26.703125 39.890625 
Q 22.75 39.890625 18.8125 39.015625 
Q 14.890625 38.140625 10.796875 36.28125 
z
" id="DejaVuSans-35"/>
      </defs>
      <g transform="translate(27.7025 173.258291)scale(0.08 -0.08)">
       <use xlink:href="#DejaVuSans-30"/>
       <use x="63.623047" xlink:href="#DejaVuSans-2e"/>
       <use x="95.410156" xlink:href="#DejaVuSans-35"/>
      </g>
     </g>
    </g>
    <g id="ytick_3">
     <g id="line2d_7">
      <g>
       <use style="stroke:#000000;stroke-width:0.8;" x="49.525" xlink:href="#m0d68e8f00d" y="131.145777"/>
      </g>
     </g>
     <g id="text_8">
      <!-- 1.0 -->
      <g transform="translate(27.7025 134.185152)scale(0.08 -0.08)">
       <use xlink:href="#DejaVuSans-31"/>
       <use x="63.623047" xlink:href="#DejaVuSans-2e"/>
       <use x="95.410156" xlink:href="#DejaVuSans-30"/>
      </g>
     </g>
    </g>
    <g id="ytick_4">
     <g id="line2d_8">
      <g>
       <use style="stroke:#000000;stroke-width:0.8;" x="49.525" xlink:href="#m0d68e8f00d" y="92.072639"/>
      </g>
     </g>
     <g id="text_9">
      <!-- 1.5 -->
      <g transform="translate(27.7025 95.112014)scale(0.08 -0.08)">
       <use xlink:href="#DejaVuSans-31"/>
       <use x="63.623047" xlink:href="#DejaVuSans-2e"/>
       <use x="95.410156" xlink:href="#DejaVuSans-35"/>
      </g>
     </g>
    </g>
    <g id="ytick_5">
     <g id="line2d_9">
      <g>
       <use style="stroke:#000000;stroke-width:0.8;" x="49.525" xlink:href="#m0d68e8f00d" y="52.9995"/>
      </g>
     </g>
     <g id="text_10">
      <!-- 2.0 -->
      <g transform="translate(27.7025 56.038875)scale(0.08 -0.08)">
       <use xlink:href="#DejaVuSans-32"/>
       <use x="63.623047" xlink:href="#DejaVuSans-2e"/>
       <use x="95.410156" xlink:href="#DejaVuSans-30"/>
      </g>
     </g>
    </g>
    <g id="text_11">
     <!-- $k$ - Path Length -->
     <defs>
      <path d="M 18.3125 75.984375 
L 27.296875 75.984375 
L 18.703125 31.6875 
L 49.515625 54.6875 
L 61.1875 54.6875 
L 26.8125 28.515625 
L 51.90625 0 
L 41.015625 0 
L 17.671875 26.703125 
L 12.5 0 
L 3.515625 0 
z
" id="DejaVuSans-Oblique-6b"/>
      <path id="DejaVuSans-20"/>
      <path d="M 4.890625 31.390625 
L 31.203125 31.390625 
L 31.203125 23.390625 
L 4.890625 23.390625 
z
" id="DejaVuSans-2d"/>
      <path d="M 19.671875 64.796875 
L 19.671875 37.40625 
L 32.078125 37.40625 
Q 38.96875 37.40625 42.71875 40.96875 
Q 46.484375 44.53125 46.484375 51.125 
Q 46.484375 57.671875 42.71875 61.234375 
Q 38.96875 64.796875 32.078125 64.796875 
z
M 9.8125 72.90625 
L 32.078125 72.90625 
Q 44.34375 72.90625 50.609375 67.359375 
Q 56.890625 61.8125 56.890625 51.125 
Q 56.890625 40.328125 50.609375 34.8125 
Q 44.34375 29.296875 32.078125 29.296875 
L 19.671875 29.296875 
L 19.671875 0 
L 9.8125 0 
z
" id="DejaVuSans-50"/>
      <path d="M 18.3125 70.21875 
L 18.3125 54.6875 
L 36.8125 54.6875 
L 36.8125 47.703125 
L 18.3125 47.703125 
L 18.3125 18.015625 
Q 18.3125 11.328125 20.140625 9.421875 
Q 21.96875 7.515625 27.59375 7.515625 
L 36.8125 7.515625 
L 36.8125 0 
L 27.59375 0 
Q 17.1875 0 13.234375 3.875 
Q 9.28125 7.765625 9.28125 18.015625 
L 9.28125 47.703125 
L 2.6875 47.703125 
L 2.6875 54.6875 
L 9.28125 54.6875 
L 9.28125 70.21875 
z
" id="DejaVuSans-74"/>
      <path d="M 54.890625 33.015625 
L 54.890625 0 
L 45.90625 0 
L 45.90625 32.71875 
Q 45.90625 40.484375 42.875 44.328125 
Q 39.84375 48.1875 33.796875 48.1875 
Q 26.515625 48.1875 22.3125 43.546875 
Q 18.109375 38.921875 18.109375 30.90625 
L 18.109375 0 
L 9.078125 0 
L 9.078125 75.984375 
L 18.109375 75.984375 
L 18.109375 46.1875 
Q 21.34375 51.125 25.703125 53.5625 
Q 30.078125 56 35.796875 56 
Q 45.21875 56 50.046875 50.171875 
Q 54.890625 44.34375 54.890625 33.015625 
z
" id="DejaVuSans-68"/>
      <path d="M 9.8125 72.90625 
L 19.671875 72.90625 
L 19.671875 8.296875 
L 55.171875 8.296875 
L 55.171875 0 
L 9.8125 0 
z
" id="DejaVuSans-4c"/>
      <path d="M 54.890625 33.015625 
L 54.890625 0 
L 45.90625 0 
L 45.90625 32.71875 
Q 45.90625 40.484375 42.875 44.328125 
Q 39.84375 48.1875 33.796875 48.1875 
Q 26.515625 48.1875 22.3125 43.546875 
Q 18.109375 38.921875 18.109375 30.90625 
L 18.109375 0 
L 9.078125 0 
L 9.078125 54.6875 
L 18.109375 54.6875 
L 18.109375 46.1875 
Q 21.34375 51.125 25.703125 53.5625 
Q 30.078125 56 35.796875 56 
Q 45.21875 56 50.046875 50.171875 
Q 54.890625 44.34375 54.890625 33.015625 
z
" id="DejaVuSans-6e"/>
      <path d="M 45.40625 27.984375 
Q 45.40625 37.75 41.375 43.109375 
Q 37.359375 48.484375 30.078125 48.484375 
Q 22.859375 48.484375 18.828125 43.109375 
Q 14.796875 37.75 14.796875 27.984375 
Q 14.796875 18.265625 18.828125 12.890625 
Q 22.859375 7.515625 30.078125 7.515625 
Q 37.359375 7.515625 41.375 12.890625 
Q 45.40625 18.265625 45.40625 27.984375 
z
M 54.390625 6.78125 
Q 54.390625 -7.171875 48.1875 -13.984375 
Q 42 -20.796875 29.203125 -20.796875 
Q 24.46875 -20.796875 20.265625 -20.09375 
Q 16.0625 -19.390625 12.109375 -17.921875 
L 12.109375 -9.1875 
Q 16.0625 -11.328125 19.921875 -12.34375 
Q 23.78125 -13.375 27.78125 -13.375 
Q 36.625 -13.375 41.015625 -8.765625 
Q 45.40625 -4.15625 45.40625 5.171875 
L 45.40625 9.625 
Q 42.625 4.78125 38.28125 2.390625 
Q 33.9375 0 27.875 0 
Q 17.828125 0 11.671875 7.65625 
Q 5.515625 15.328125 5.515625 27.984375 
Q 5.515625 40.671875 11.671875 48.328125 
Q 17.828125 56 27.875 56 
Q 33.9375 56 38.28125 53.609375 
Q 42.625 51.21875 45.40625 46.390625 
L 45.40625 54.6875 
L 54.390625 54.6875 
z
" id="DejaVuSans-67"/>
     </defs>
     <g transform="translate(21.8545 150.934)rotate(-90)scale(0.088 -0.088)">
      <use transform="translate(0 0.015625)" xlink:href="#DejaVuSans-Oblique-6b"/>
      <use transform="translate(57.910156 0.015625)" xlink:href="#DejaVuSans-20"/>
      <use transform="translate(89.697266 0.015625)" xlink:href="#DejaVuSans-2d"/>
      <use transform="translate(125.78125 0.015625)" xlink:href="#DejaVuSans-20"/>
      <use transform="translate(157.568359 0.015625)" xlink:href="#DejaVuSans-50"/>
      <use transform="translate(217.871094 0.015625)" xlink:href="#DejaVuSans-61"/>
      <use transform="translate(279.150391 0.015625)" xlink:href="#DejaVuSans-74"/>
      <use transform="translate(318.359375 0.015625)" xlink:href="#DejaVuSans-68"/>
      <use transform="translate(381.738281 0.015625)" xlink:href="#DejaVuSans-20"/>
      <use transform="translate(413.525391 0.015625)" xlink:href="#DejaVuSans-4c"/>
      <use transform="translate(469.238281 0.015625)" xlink:href="#DejaVuSans-65"/>
      <use transform="translate(530.761719 0.015625)" xlink:href="#DejaVuSans-6e"/>
      <use transform="translate(594.140625 0.015625)" xlink:href="#DejaVuSans-67"/>
      <use transform="translate(657.617188 0.015625)" xlink:href="#DejaVuSans-74"/>
      <use transform="translate(696.826172 0.015625)" xlink:href="#DejaVuSans-68"/>
     </g>
    </g>
   </g>
   <g id="line2d_10">
    <path clip-path="url(#p5dd2adaedc)" d="M 57.721946 186.151167 
L 62.405915 187.683425 
L 67.089884 183.26456 
L 71.773853 179.921848 
L 76.457823 176.336967 
L 81.141792 176.52201 
L 85.825761 175.12536 
L 90.50973 174.676535 
L 95.193699 175.573971 
L 99.877668 175.772314 
L 104.561638 175.236967 
L 109.245607 175.788887 
L 113.929576 174.591025 
L 118.613545 175.470389 
L 123.297514 173.539387 
L 127.981483 172.600772 
L 132.665453 171.877051 
L 137.349422 169.304692 
L 142.033391 170.495843 
L 146.71736 171.271391 
L 151.401329 169.315112 
L 156.085298 170.114582 
L 160.769267 170.427306 
L 165.453237 170.296803 
L 170.137206 170.566978 
L 174.821175 169.871771 
L 179.505144 169.207189 
L 184.189113 168.52899 
L 188.873082 167.032145 
L 193.557052 165.31562 
L 198.241021 163.125167 
L 202.92499 162.103628 
L 207.608959 159.931144 
L 212.292928 158.801441 
L 216.976897 155.726288 
L 221.660866 153.242137 
" style="fill:none;opacity:0.7;stroke:#1f77b4;stroke-dasharray:1.4,2.31;stroke-dashoffset:0;stroke-width:1.4;"/>
   </g>
   <g id="line2d_11">
    <path clip-path="url(#p5dd2adaedc)" d="M 57.721946 123.233263 
L 62.405915 115.805953 
L 67.089884 104.609134 
L 71.773853 96.620202 
L 76.457823 85.920937 
L 81.141792 78.752251 
L 85.825761 72.523425 
L 90.50973 69.487292 
L 95.193699 67.476239 
L 99.877668 63.412914 
L 104.561638 62.584734 
L 109.245607 59.680511 
L 113.929576 56.673956 
L 118.613545 51.455767 
L 123.297514 48.495035 
L 127.981483 47.285491 
L 132.665453 44.20855 
L 137.349422 42.337683 
L 142.033391 40.486532 
L 146.71736 39.836353 
L 151.401329 39.683965 
L 156.085298 40.403933 
L 160.769267 40.841714 
L 165.453237 37.937893 
L 170.137206 41.636874 
L 174.821175 44.251234 
L 179.505144 42.039961 
L 184.189113 44.659062 
L 188.873082 44.737811 
L 193.557052 42.410574 
L 198.241021 41.639184 
L 202.92499 42.360688 
L 207.608959 41.616947 
L 212.292928 40.693271 
L 216.976897 39.329093 
L 221.660866 35.382313 
" style="fill:none;opacity:0.7;stroke:#ff7f0e;stroke-dasharray:1.4,2.31;stroke-dashoffset:0;stroke-width:1.4;"/>
   </g>
   <g id="line2d_12">
    <path clip-path="url(#p5dd2adaedc)" d="M 67.089884 186.390575 
L 71.773853 184.049683 
L 76.457823 181.807791 
L 81.141792 180.943722 
L 85.825761 177.823911 
L 90.50973 179.045543 
L 95.193699 178.347474 
L 99.877668 177.856692 
L 104.561638 179.148675 
L 109.245607 178.184032 
L 113.929576 177.695545 
L 118.613545 178.894799 
L 123.297514 177.923924 
L 127.981483 176.056474 
L 132.665453 175.839381 
L 137.349422 174.192456 
L 142.033391 173.757926 
L 146.71736 174.324353 
L 151.401329 172.049516 
L 156.085298 173.508648 
L 160.769267 173.111356 
L 165.453237 172.699272 
L 170.137206 174.21128 
L 174.821175 171.98041 
L 179.505144 171.453014 
L 184.189113 170.556953 
L 188.873082 169.14515 
L 193.557052 168.333721 
L 198.241021 167.104965 
L 202.92499 165.109504 
L 207.608959 163.487622 
L 212.292928 161.703354 
L 216.976897 159.122617 
L 221.660866 157.436881 
" style="fill:none;opacity:0.7;stroke:#1f77b4;stroke-dasharray:1.4,2.31;stroke-dashoffset:0;stroke-width:1.4;"/>
   </g>
   <g id="line2d_13">
    <path clip-path="url(#p5dd2adaedc)" d="M 67.089884 125.175349 
L 71.773853 117.483117 
L 76.457823 102.772374 
L 81.141792 94.371059 
L 85.825761 87.183361 
L 90.50973 84.211771 
L 95.193699 80.580539 
L 99.877668 74.637257 
L 104.561638 70.998709 
L 109.245607 65.638811 
L 113.929576 62.406898 
L 118.613545 60.030739 
L 123.297514 54.010285 
L 127.981483 51.815938 
L 132.665453 50.322836 
L 137.349422 47.773353 
L 142.033391 44.697026 
L 146.71736 46.028565 
L 151.401329 43.072412 
L 156.085298 43.727908 
L 160.769267 42.119112 
L 165.453237 42.087312 
L 170.137206 43.28834 
L 174.821175 44.676396 
L 179.505144 44.444362 
L 184.189113 44.601775 
L 188.873082 44.78958 
L 193.557052 41.973571 
L 198.241021 43.032701 
L 202.92499 41.816358 
L 207.608959 41.978871 
L 212.292928 39.670562 
L 216.976897 38.176813 
L 221.660866 33.222727 
" style="fill:none;opacity:0.7;stroke:#ff7f0e;stroke-dasharray:1.4,2.31;stroke-dashoffset:0;stroke-width:1.4;"/>
   </g>
   <g id="line2d_14">
    <path clip-path="url(#p5dd2adaedc)" d="M 76.457823 184.552278 
L 81.141792 184.865929 
L 85.825761 182.564943 
L 90.50973 180.679767 
L 95.193699 181.227844 
L 99.877668 179.312623 
L 104.561638 180.789805 
L 109.245607 181.397116 
L 113.929576 180.291857 
L 118.613545 180.989855 
L 123.297514 179.865027 
L 127.981483 177.661419 
L 132.665453 176.983707 
L 137.349422 175.639425 
L 142.033391 175.432551 
L 146.71736 176.26965 
L 151.401329 174.531577 
L 156.085298 175.007045 
L 160.769267 174.396367 
L 165.453237 174.984281 
L 170.137206 176.286527 
L 174.821175 174.076591 
L 179.505144 174.048508 
L 184.189113 172.769161 
L 188.873082 171.509366 
L 193.557052 170.127344 
L 198.241021 169.235767 
L 202.92499 166.611949 
L 207.608959 166.282182 
L 212.292928 164.885034 
L 216.976897 162.432223 
L 221.660866 160.670496 
" style="fill:none;opacity:0.7;stroke:#1f77b4;stroke-dasharray:1.4,2.31;stroke-dashoffset:0;stroke-width:1.4;"/>
   </g>
   <g id="line2d_15">
    <path clip-path="url(#p5dd2adaedc)" d="M 76.457823 124.775157 
L 81.141792 107.237096 
L 85.825761 99.178247 
L 90.50973 96.135333 
L 95.193699 92.772496 
L 99.877668 82.606926 
L 104.561638 80.30776 
L 109.245607 74.175247 
L 113.929576 69.118628 
L 118.613545 66.428032 
L 123.297514 59.618632 
L 127.981483 56.666058 
L 132.665453 53.32511 
L 137.349422 52.243734 
L 142.033391 50.111486 
L 146.71736 49.150034 
L 151.401329 45.344186 
L 156.085298 45.113179 
L 160.769267 44.366236 
L 165.453237 41.761207 
L 170.137206 44.061657 
L 174.821175 43.827865 
L 179.505144 44.188219 
L 184.189113 44.682767 
L 188.873082 45.154106 
L 193.557052 42.754889 
L 198.241021 41.152251 
L 202.92499 40.689432 
L 207.608959 41.063885 
L 212.292928 39.912714 
L 216.976897 37.366509 
L 221.660866 35.266021 
" style="fill:none;opacity:0.7;stroke:#ff7f0e;stroke-dasharray:1.4,2.31;stroke-dashoffset:0;stroke-width:1.4;"/>
   </g>
   <g id="line2d_16">
    <path clip-path="url(#p5dd2adaedc)" d="M 85.825761 187.072716 
L 90.50973 186.097319 
L 95.193699 186.984186 
L 99.877668 184.483518 
L 104.561638 183.740532 
L 109.245607 183.970182 
L 113.929576 183.227613 
L 118.613545 182.92468 
L 123.297514 181.735514 
L 127.981483 179.813101 
L 132.665453 179.542733 
L 137.349422 178.228683 
L 142.033391 178.578015 
L 146.71736 178.507496 
L 151.401329 177.872763 
L 156.085298 178.436062 
L 160.769267 178.412475 
L 165.453237 178.758225 
L 170.137206 179.241708 
L 174.821175 178.522438 
L 179.505144 178.160256 
L 184.189113 176.645491 
L 188.873082 175.63575 
L 193.557052 174.141484 
L 198.241021 173.323238 
L 202.92499 172.331418 
L 207.608959 170.554913 
L 212.292928 169.482504 
L 216.976897 167.389724 
L 221.660866 165.595387 
" style="fill:none;opacity:0.7;stroke:#1f77b4;stroke-dasharray:1.4,2.31;stroke-dashoffset:0;stroke-width:1.4;"/>
   </g>
   <g id="line2d_17">
    <path clip-path="url(#p5dd2adaedc)" d="M 85.825761 124.321566 
L 90.50973 118.176496 
L 95.193699 108.961599 
L 99.877668 99.156548 
L 104.561638 94.726928 
L 109.245607 89.200464 
L 113.929576 81.266731 
L 118.613545 77.653542 
L 123.297514 71.084531 
L 127.981483 66.739125 
L 132.665453 62.236969 
L 137.349422 57.22227 
L 142.033391 53.938046 
L 146.71736 53.176959 
L 151.401329 50.468317 
L 156.085298 49.049527 
L 160.769267 45.638686 
L 165.453237 44.096368 
L 170.137206 47.427546 
L 174.821175 47.02819 
L 179.505144 47.264133 
L 184.189113 45.910345 
L 188.873082 45.849538 
L 193.557052 43.771134 
L 198.241021 42.617146 
L 202.92499 39.398045 
L 207.608959 41.260851 
L 212.292928 38.104176 
L 216.976897 37.055988 
L 221.660866 33.297793 
" style="fill:none;opacity:0.7;stroke:#ff7f0e;stroke-dasharray:1.4,2.31;stroke-dashoffset:0;stroke-width:1.4;"/>
   </g>
   <g id="line2d_18">
    <path clip-path="url(#p5dd2adaedc)" d="M 95.193699 189.739519 
L 99.877668 188.385319 
L 104.561638 187.90511 
L 109.245607 187.147778 
L 113.929576 186.030452 
L 118.613545 185.920276 
L 123.297514 184.268147 
L 127.981483 182.395763 
L 132.665453 182.007739 
L 137.349422 181.416999 
L 142.033391 180.845568 
L 146.71736 181.252123 
L 151.401329 179.377606 
L 156.085298 179.438685 
L 160.769267 179.545851 
L 165.453237 179.577425 
L 170.137206 180.655516 
L 174.821175 180.100235 
L 179.505144 179.005846 
L 184.189113 178.06125 
L 188.873082 176.151889 
L 193.557052 174.826127 
L 198.241021 174.82094 
L 202.92499 174.102127 
L 207.608959 173.309166 
L 212.292928 171.318278 
L 216.976897 169.372484 
L 221.660866 167.63283 
" style="fill:none;opacity:0.7;stroke:#1f77b4;stroke-dasharray:1.4,2.31;stroke-dashoffset:0;stroke-width:1.4;"/>
   </g>
   <g id="line2d_19">
    <path clip-path="url(#p5dd2adaedc)" d="M 95.193699 124.087135 
L 99.877668 115.876801 
L 104.561638 107.330491 
L 109.245607 102.561549 
L 113.929576 93.273436 
L 118.613545 88.0668 
L 123.297514 80.311179 
L 127.981483 74.833582 
L 132.665453 69.802818 
L 137.349422 63.351807 
L 142.033391 59.384267 
L 146.71736 58.024504 
L 151.401329 54.135512 
L 156.085298 52.842917 
L 160.769267 51.273 
L 165.453237 50.422767 
L 170.137206 51.211132 
L 174.821175 50.623648 
L 179.505144 49.501048 
L 184.189113 50.431807 
L 188.873082 48.761837 
L 193.557052 46.757353 
L 198.241021 45.458889 
L 202.92499 43.375978 
L 207.608959 43.013015 
L 212.292928 40.94039 
L 216.976897 39.243414 
L 221.660866 35.371691 
" style="fill:none;opacity:0.7;stroke:#ff7f0e;stroke-dasharray:1.4,2.31;stroke-dashoffset:0;stroke-width:1.4;"/>
   </g>
   <g id="line2d_20">
    <path clip-path="url(#p5dd2adaedc)" d="M 104.561638 192.221961 
L 109.245607 192.180377 
L 113.929576 191.09591 
L 118.613545 190.197406 
L 123.297514 187.448831 
L 127.981483 185.956374 
L 132.665453 184.857905 
L 137.349422 184.504579 
L 142.033391 184.114655 
L 146.71736 184.575833 
L 151.401329 182.882397 
L 156.085298 182.820633 
L 160.769267 183.09552 
L 165.453237 183.4155 
L 170.137206 184.083946 
L 174.821175 182.799574 
L 179.505144 182.72527 
L 184.189113 181.79761 
L 188.873082 181.095934 
L 193.557052 179.584625 
L 198.241021 178.975038 
L 202.92499 178.208977 
L 207.608959 177.180222 
L 212.292928 175.55319 
L 216.976897 173.585019 
L 221.660866 172.356188 
" style="fill:none;opacity:0.7;stroke:#1f77b4;stroke-dasharray:1.4,2.31;stroke-dashoffset:0;stroke-width:1.4;"/>
   </g>
   <g id="line2d_21">
    <path clip-path="url(#p5dd2adaedc)" d="M 104.561638 124.799091 
L 109.245607 117.070531 
L 113.929576 107.493162 
L 118.613545 101.265372 
L 123.297514 91.81528 
L 127.981483 86.848002 
L 132.665453 78.884093 
L 137.349422 70.072773 
L 142.033391 65.776821 
L 146.71736 66.01647 
L 151.401329 58.103038 
L 156.085298 60.49782 
L 160.769267 56.432457 
L 165.453237 55.379972 
L 170.137206 55.186276 
L 174.821175 53.284884 
L 179.505144 52.846383 
L 184.189113 51.643902 
L 188.873082 52.065891 
L 193.557052 49.873336 
L 198.241021 48.630349 
L 202.92499 45.534527 
L 207.608959 45.181795 
L 212.292928 42.367927 
L 216.976897 39.448034 
L 221.660866 36.380397 
" style="fill:none;opacity:0.7;stroke:#ff7f0e;stroke-dasharray:1.4,2.31;stroke-dashoffset:0;stroke-width:1.4;"/>
   </g>
   <g id="line2d_22">
    <path clip-path="url(#p5dd2adaedc)" d="M 113.929576 193.340603 
L 118.613545 192.52061 
L 123.297514 190.890987 
L 127.981483 188.916252 
L 132.665453 188.099187 
L 137.349422 187.074706 
L 142.033391 185.888464 
L 146.71736 186.317512 
L 151.401329 185.157967 
L 156.085298 185.799716 
L 160.769267 185.94048 
L 165.453237 186.199712 
L 170.137206 186.618022 
L 174.821175 186.122644 
L 179.505144 185.668539 
L 184.189113 185.178206 
L 188.873082 183.968922 
L 193.557052 182.893941 
L 198.241021 182.376911 
L 202.92499 181.904322 
L 207.608959 180.841116 
L 212.292928 179.327904 
L 216.976897 177.394868 
L 221.660866 176.519068 
" style="fill:none;opacity:0.7;stroke:#1f77b4;stroke-dasharray:1.4,2.31;stroke-dashoffset:0;stroke-width:1.4;"/>
   </g>
   <g id="line2d_23">
    <path clip-path="url(#p5dd2adaedc)" d="M 113.929576 123.714383 
L 118.613545 116.605899 
L 123.297514 106.566863 
L 127.981483 98.462963 
L 132.665453 90.285074 
L 137.349422 81.991635 
L 142.033391 76.483909 
L 146.71736 73.215487 
L 151.401329 67.484324 
L 156.085298 64.575318 
L 160.769267 61.83662 
L 165.453237 60.707953 
L 170.137206 60.4093 
L 174.821175 59.44639 
L 179.505144 57.888411 
L 184.189113 55.987089 
L 188.873082 55.142304 
L 193.557052 52.294917 
L 198.241021 50.82877 
L 202.92499 48.204492 
L 207.608959 47.302492 
L 212.292928 45.819299 
L 216.976897 42.877812 
L 221.660866 38.714165 
" style="fill:none;opacity:0.7;stroke:#ff7f0e;stroke-dasharray:1.4,2.31;stroke-dashoffset:0;stroke-width:1.4;"/>
   </g>
   <g id="line2d_24">
    <path clip-path="url(#p5dd2adaedc)" d="M 123.297514 194.215843 
L 127.981483 191.563787 
L 132.665453 190.517599 
L 137.349422 189.738925 
L 142.033391 189.338988 
L 146.71736 189.268145 
L 151.401329 187.567242 
L 156.085298 187.326535 
L 160.769267 187.391243 
L 165.453237 188.34578 
L 170.137206 188.77739 
L 174.821175 188.287878 
L 179.505144 187.664261 
L 184.189113 187.189932 
L 188.873082 185.890928 
L 193.557052 185.059029 
L 198.241021 184.276318 
L 202.92499 183.901877 
L 207.608959 183.130053 
L 212.292928 181.31175 
L 216.976897 179.832488 
L 221.660866 178.803522 
" style="fill:none;opacity:0.7;stroke:#1f77b4;stroke-dasharray:1.4,2.31;stroke-dashoffset:0;stroke-width:1.4;"/>
   </g>
   <g id="line2d_25">
    <path clip-path="url(#p5dd2adaedc)" d="M 123.297514 123.590395 
L 127.981483 114.715626 
L 132.665453 105.928651 
L 137.349422 96.45045 
L 142.033391 89.324939 
L 146.71736 83.091032 
L 151.401329 77.550941 
L 156.085298 73.892957 
L 160.769267 69.348268 
L 165.453237 67.786374 
L 170.137206 67.985188 
L 174.821175 65.133774 
L 179.505144 62.800739 
L 184.189113 60.59305 
L 188.873082 59.395389 
L 193.557052 56.017727 
L 198.241021 53.648859 
L 202.92499 52.216109 
L 207.608959 50.004931 
L 212.292928 47.980459 
L 216.976897 44.919488 
L 221.660866 40.311064 
" style="fill:none;opacity:0.7;stroke:#ff7f0e;stroke-dasharray:1.4,2.31;stroke-dashoffset:0;stroke-width:1.4;"/>
   </g>
   <g id="line2d_26">
    <path clip-path="url(#p5dd2adaedc)" d="M 132.665453 194.721292 
L 137.349422 194.409549 
L 142.033391 192.707241 
L 146.71736 192.832836 
L 151.401329 190.81325 
L 156.085298 190.657341 
L 160.769267 190.88565 
L 165.453237 191.273093 
L 170.137206 191.777996 
L 174.821175 191.282712 
L 179.505144 190.832979 
L 184.189113 189.998497 
L 188.873082 189.629703 
L 193.557052 188.421778 
L 198.241021 188.179049 
L 202.92499 187.153723 
L 207.608959 186.432474 
L 212.292928 185.298803 
L 216.976897 183.5515 
L 221.660866 182.440103 
" style="fill:none;opacity:0.7;stroke:#1f77b4;stroke-dasharray:1.4,2.31;stroke-dashoffset:0;stroke-width:1.4;"/>
   </g>
   <g id="line2d_27">
    <path clip-path="url(#p5dd2adaedc)" d="M 132.665453 124.591258 
L 137.349422 115.669442 
L 142.033391 104.54768 
L 146.71736 97.230897 
L 151.401329 87.653197 
L 156.085298 84.743756 
L 160.769267 78.465536 
L 165.453237 76.168535 
L 170.137206 74.228994 
L 174.821175 71.587658 
L 179.505144 68.432205 
L 184.189113 65.728184 
L 188.873082 63.997664 
L 193.557052 60.360328 
L 198.241021 58.175651 
L 202.92499 55.924604 
L 207.608959 54.273323 
L 212.292928 51.483885 
L 216.976897 47.571468 
L 221.660866 43.881847 
" style="fill:none;opacity:0.7;stroke:#ff7f0e;stroke-dasharray:1.4,2.31;stroke-dashoffset:0;stroke-width:1.4;"/>
   </g>
   <g id="line2d_28">
    <path clip-path="url(#p5dd2adaedc)" d="M 142.033391 195.036943 
L 146.71736 195.306529 
L 151.401329 193.543537 
L 156.085298 193.26478 
L 160.769267 193.491592 
L 165.453237 193.513867 
L 170.137206 193.966706 
L 174.821175 193.571909 
L 179.505144 192.95772 
L 184.189113 192.191851 
L 188.873082 191.59342 
L 193.557052 190.806497 
L 198.241021 190.210447 
L 202.92499 189.667672 
L 207.608959 188.784449 
L 212.292928 187.4845 
L 216.976897 186.021246 
L 221.660866 185.223473 
" style="fill:none;opacity:0.7;stroke:#1f77b4;stroke-dasharray:1.4,2.31;stroke-dashoffset:0;stroke-width:1.4;"/>
   </g>
   <g id="line2d_29">
    <path clip-path="url(#p5dd2adaedc)" d="M 142.033391 124.271403 
L 146.71736 113.80454 
L 151.401329 106.74262 
L 156.085298 98.106556 
L 160.769267 92.628101 
L 165.453237 86.631464 
L 170.137206 85.317111 
L 174.821175 80.000168 
L 179.505144 76.399743 
L 184.189113 73.013266 
L 188.873082 71.026822 
L 193.557052 67.328931 
L 198.241021 63.610182 
L 202.92499 61.124736 
L 207.608959 58.074728 
L 212.292928 57.024371 
L 216.976897 50.99622 
L 221.660866 47.052482 
" style="fill:none;opacity:0.7;stroke:#ff7f0e;stroke-dasharray:1.4,2.31;stroke-dashoffset:0;stroke-width:1.4;"/>
   </g>
   <g id="line2d_30">
    <path clip-path="url(#p5dd2adaedc)" d="M 151.401329 196.343721 
L 156.085298 196.183519 
L 160.769267 195.920109 
L 165.453237 196.117382 
L 170.137206 196.078974 
L 174.821175 195.557426 
L 179.505144 195.224391 
L 184.189113 194.531485 
L 188.873082 193.801189 
L 193.557052 192.863568 
L 198.241021 192.324407 
L 202.92499 191.891542 
L 207.608959 191.225665 
L 212.292928 189.993701 
L 216.976897 188.707488 
L 221.660866 187.464538 
" style="fill:none;opacity:0.7;stroke:#1f77b4;stroke-dasharray:1.4,2.31;stroke-dashoffset:0;stroke-width:1.4;"/>
   </g>
   <g id="line2d_31">
    <path clip-path="url(#p5dd2adaedc)" d="M 151.401329 124.405364 
L 156.085298 116.69703 
L 160.769267 108.197522 
L 165.453237 102.157565 
L 170.137206 97.174123 
L 174.821175 91.970423 
L 179.505144 87.426015 
L 184.189113 82.501631 
L 188.873082 79.029943 
L 193.557052 74.30918 
L 198.241021 70.416471 
L 202.92499 67.154116 
L 207.608959 64.005582 
L 212.292928 60.903951 
L 216.976897 56.045399 
L 221.660866 52.03142 
" style="fill:none;opacity:0.7;stroke:#ff7f0e;stroke-dasharray:1.4,2.31;stroke-dashoffset:0;stroke-width:1.4;"/>
   </g>
   <g id="line2d_32">
    <path clip-path="url(#p5dd2adaedc)" d="M 160.769267 198.423595 
L 165.453237 198.714636 
L 170.137206 198.612374 
L 174.821175 197.992079 
L 179.505144 197.488193 
L 184.189113 196.726929 
L 188.873082 196.012465 
L 193.557052 195.458171 
L 198.241021 194.755533 
L 202.92499 194.304905 
L 207.608959 193.395516 
L 212.292928 192.656829 
L 216.976897 191.221465 
L 221.660866 190.259879 
" style="fill:none;opacity:0.7;stroke:#1f77b4;stroke-dasharray:1.4,2.31;stroke-dashoffset:0;stroke-width:1.4;"/>
   </g>
   <g id="line2d_33">
    <path clip-path="url(#p5dd2adaedc)" d="M 160.769267 125.274883 
L 165.453237 117.79337 
L 170.137206 110.470788 
L 174.821175 103.917117 
L 179.505144 97.773211 
L 184.189113 91.468453 
L 188.873082 86.864866 
L 193.557052 81.581598 
L 198.241021 76.8096 
L 202.92499 72.717406 
L 207.608959 69.180944 
L 212.292928 65.953041 
L 216.976897 60.851831 
L 221.660866 55.979483 
" style="fill:none;opacity:0.7;stroke:#ff7f0e;stroke-dasharray:1.4,2.31;stroke-dashoffset:0;stroke-width:1.4;"/>
   </g>
   <g id="line2d_34">
    <path clip-path="url(#p5dd2adaedc)" d="M 170.137206 200.712216 
L 174.821175 200.330037 
L 179.505144 199.826551 
L 184.189113 198.888621 
L 188.873082 198.189104 
L 193.557052 197.310119 
L 198.241021 196.893083 
L 202.92499 196.283807 
L 207.608959 195.400281 
L 212.292928 194.723791 
L 216.976897 193.338915 
L 221.660866 192.237463 
" style="fill:none;opacity:0.7;stroke:#1f77b4;stroke-dasharray:1.4,2.31;stroke-dashoffset:0;stroke-width:1.4;"/>
   </g>
   <g id="line2d_35">
    <path clip-path="url(#p5dd2adaedc)" d="M 170.137206 126.109875 
L 174.821175 118.636288 
L 179.505144 110.45089 
L 184.189113 102.212698 
L 188.873082 96.092968 
L 193.557052 88.914429 
L 198.241021 83.261505 
L 202.92499 78.613985 
L 207.608959 73.663786 
L 212.292928 69.778458 
L 216.976897 64.04744 
L 221.660866 58.611519 
" style="fill:none;opacity:0.7;stroke:#ff7f0e;stroke-dasharray:1.4,2.31;stroke-dashoffset:0;stroke-width:1.4;"/>
   </g>
   <g id="line2d_36">
    <path clip-path="url(#p5dd2adaedc)" d="M 179.505144 201.396575 
L 184.189113 200.482182 
L 188.873082 199.766287 
L 193.557052 198.892451 
L 198.241021 198.288848 
L 202.92499 197.59833 
L 207.608959 196.805564 
L 212.292928 196.062753 
L 216.976897 194.726339 
L 221.660866 193.776738 
" style="fill:none;opacity:0.7;stroke:#1f77b4;stroke-dasharray:1.4,2.31;stroke-dashoffset:0;stroke-width:1.4;"/>
   </g>
   <g id="line2d_37">
    <path clip-path="url(#p5dd2adaedc)" d="M 179.505144 125.795389 
L 184.189113 117.871131 
L 188.873082 109.377892 
L 193.557052 100.369293 
L 198.241021 92.910486 
L 202.92499 86.914602 
L 207.608959 81.052347 
L 212.292928 75.850536 
L 216.976897 69.269726 
L 221.660866 63.025711 
" style="fill:none;opacity:0.7;stroke:#ff7f0e;stroke-dasharray:1.4,2.31;stroke-dashoffset:0;stroke-width:1.4;"/>
   </g>
   <g id="line2d_38">
    <path clip-path="url(#p5dd2adaedc)" d="M 188.873082 201.480562 
L 193.557052 200.627507 
L 198.241021 199.857652 
L 202.92499 199.105121 
L 207.608959 198.274355 
L 212.292928 197.623571 
L 216.976897 196.284367 
L 221.660866 195.313058 
" style="fill:none;opacity:0.7;stroke:#1f77b4;stroke-dasharray:1.4,2.31;stroke-dashoffset:0;stroke-width:1.4;"/>
   </g>
   <g id="line2d_39">
    <path clip-path="url(#p5dd2adaedc)" d="M 188.873082 126.44884 
L 193.557052 118.079432 
L 198.241021 108.788528 
L 202.92499 100.421247 
L 207.608959 92.97735 
L 212.292928 86.297903 
L 216.976897 78.866406 
L 221.660866 71.946463 
" style="fill:none;opacity:0.7;stroke:#ff7f0e;stroke-dasharray:1.4,2.31;stroke-dashoffset:0;stroke-width:1.4;"/>
   </g>
   <g id="line2d_40">
    <path clip-path="url(#p5dd2adaedc)" d="M 198.241021 201.379702 
L 202.92499 200.752057 
L 207.608959 199.714144 
L 212.292928 199.080636 
L 216.976897 197.900046 
L 221.660866 196.984528 
" style="fill:none;opacity:0.7;stroke:#1f77b4;stroke-dasharray:1.4,2.31;stroke-dashoffset:0;stroke-width:1.4;"/>
   </g>
   <g id="line2d_41">
    <path clip-path="url(#p5dd2adaedc)" d="M 198.241021 126.564876 
L 202.92499 118.268839 
L 207.608959 108.650756 
L 212.292928 100.567726 
L 216.976897 91.347501 
L 221.660866 83.16984 
" style="fill:none;opacity:0.7;stroke:#ff7f0e;stroke-dasharray:1.4,2.31;stroke-dashoffset:0;stroke-width:1.4;"/>
   </g>
   <g id="line2d_42">
    <path clip-path="url(#p5dd2adaedc)" d="M 207.608959 201.50201 
L 212.292928 200.934405 
L 216.976897 199.656886 
L 221.660866 198.618097 
" style="fill:none;opacity:0.7;stroke:#1f77b4;stroke-dasharray:1.4,2.31;stroke-dashoffset:0;stroke-width:1.4;"/>
   </g>
   <g id="line2d_43">
    <path clip-path="url(#p5dd2adaedc)" d="M 207.608959 126.414572 
L 212.292928 118.011214 
L 216.976897 107.001924 
L 221.660866 97.30954 
" style="fill:none;opacity:0.7;stroke:#ff7f0e;stroke-dasharray:1.4,2.31;stroke-dashoffset:0;stroke-width:1.4;"/>
   </g>
   <g id="line2d_44">
    <path clip-path="url(#p5dd2adaedc)" d="M 216.976897 201.677273 
L 221.660866 200.631061 
" style="fill:none;opacity:0.7;stroke:#1f77b4;stroke-dasharray:1.4,2.31;stroke-dashoffset:0;stroke-width:1.4;"/>
   </g>
   <g id="line2d_45">
    <path clip-path="url(#p5dd2adaedc)" d="M 216.976897 126.401134 
L 221.660866 116.984928 
" style="fill:none;opacity:0.7;stroke:#ff7f0e;stroke-dasharray:1.4,2.31;stroke-dashoffset:0;stroke-width:1.4;"/>
   </g>
   <g id="patch_3">
    <path d="M 49.525 210.1 
L 49.525 24.8 
" style="fill:none;stroke:#000000;stroke-linecap:square;stroke-linejoin:miter;stroke-width:0.8;"/>
   </g>
   <g id="patch_4">
    <path d="M 229.857813 210.1 
L 229.857813 24.8 
" style="fill:none;stroke:#000000;stroke-linecap:square;stroke-linejoin:miter;stroke-width:0.8;"/>
   </g>
   <g id="patch_5">
    <path d="M 49.525 210.1 
L 229.857813 210.1 
" style="fill:none;stroke:#000000;stroke-linecap:square;stroke-linejoin:miter;stroke-width:0.8;"/>
   </g>
   <g id="patch_6">
    <path d="M 49.525 24.8 
L 229.857813 24.8 
" style="fill:none;stroke:#000000;stroke-linecap:square;stroke-linejoin:miter;stroke-width:0.8;"/>
   </g>
   <g id="text_12">
    <!-- Average Shortest Paths to Consecutive Years -->
    <defs>
     <path d="M 34.1875 63.1875 
L 20.796875 26.90625 
L 47.609375 26.90625 
z
M 28.609375 72.90625 
L 39.796875 72.90625 
L 67.578125 0 
L 57.328125 0 
L 50.6875 18.703125 
L 17.828125 18.703125 
L 11.1875 0 
L 0.78125 0 
z
" id="DejaVuSans-41"/>
     <path d="M 2.984375 54.6875 
L 12.5 54.6875 
L 29.59375 8.796875 
L 46.6875 54.6875 
L 56.203125 54.6875 
L 35.6875 0 
L 23.484375 0 
z
" id="DejaVuSans-76"/>
     <path d="M 53.515625 70.515625 
L 53.515625 60.890625 
Q 47.90625 63.578125 42.921875 64.890625 
Q 37.9375 66.21875 33.296875 66.21875 
Q 25.25 66.21875 20.875 63.09375 
Q 16.5 59.96875 16.5 54.203125 
Q 16.5 49.359375 19.40625 46.890625 
Q 22.3125 44.4375 30.421875 42.921875 
L 36.375 41.703125 
Q 47.40625 39.59375 52.65625 34.296875 
Q 57.90625 29 57.90625 20.125 
Q 57.90625 9.515625 50.796875 4.046875 
Q 43.703125 -1.421875 29.984375 -1.421875 
Q 24.8125 -1.421875 18.96875 -0.25 
Q 13.140625 0.921875 6.890625 3.21875 
L 6.890625 13.375 
Q 12.890625 10.015625 18.65625 8.296875 
Q 24.421875 6.59375 29.984375 6.59375 
Q 38.421875 6.59375 43.015625 9.90625 
Q 47.609375 13.234375 47.609375 19.390625 
Q 47.609375 24.75 44.3125 27.78125 
Q 41.015625 30.8125 33.5 32.328125 
L 27.484375 33.5 
Q 16.453125 35.6875 11.515625 40.375 
Q 6.59375 45.0625 6.59375 53.421875 
Q 6.59375 63.09375 13.40625 68.65625 
Q 20.21875 74.21875 32.171875 74.21875 
Q 37.3125 74.21875 42.625 73.28125 
Q 47.953125 72.359375 53.515625 70.515625 
z
" id="DejaVuSans-53"/>
     <path d="M 30.609375 48.390625 
Q 23.390625 48.390625 19.1875 42.75 
Q 14.984375 37.109375 14.984375 27.296875 
Q 14.984375 17.484375 19.15625 11.84375 
Q 23.34375 6.203125 30.609375 6.203125 
Q 37.796875 6.203125 41.984375 11.859375 
Q 46.1875 17.53125 46.1875 27.296875 
Q 46.1875 37.015625 41.984375 42.703125 
Q 37.796875 48.390625 30.609375 48.390625 
z
M 30.609375 56 
Q 42.328125 56 49.015625 48.375 
Q 55.71875 40.765625 55.71875 27.296875 
Q 55.71875 13.875 49.015625 6.21875 
Q 42.328125 -1.421875 30.609375 -1.421875 
Q 18.84375 -1.421875 12.171875 6.21875 
Q 5.515625 13.875 5.515625 27.296875 
Q 5.515625 40.765625 12.171875 48.375 
Q 18.84375 56 30.609375 56 
z
" id="DejaVuSans-6f"/>
     <path d="M 44.28125 53.078125 
L 44.28125 44.578125 
Q 40.484375 46.53125 36.375 47.5 
Q 32.28125 48.484375 27.875 48.484375 
Q 21.1875 48.484375 17.84375 46.4375 
Q 14.5 44.390625 14.5 40.28125 
Q 14.5 37.15625 16.890625 35.375 
Q 19.28125 33.59375 26.515625 31.984375 
L 29.59375 31.296875 
Q 39.15625 29.25 43.1875 25.515625 
Q 47.21875 21.78125 47.21875 15.09375 
Q 47.21875 7.46875 41.1875 3.015625 
Q 35.15625 -1.421875 24.609375 -1.421875 
Q 20.21875 -1.421875 15.453125 -0.5625 
Q 10.6875 0.296875 5.421875 2 
L 5.421875 11.28125 
Q 10.40625 8.6875 15.234375 7.390625 
Q 20.0625 6.109375 24.8125 6.109375 
Q 31.15625 6.109375 34.5625 8.28125 
Q 37.984375 10.453125 37.984375 14.40625 
Q 37.984375 18.0625 35.515625 20.015625 
Q 33.0625 21.96875 24.703125 23.78125 
L 21.578125 24.515625 
Q 13.234375 26.265625 9.515625 29.90625 
Q 5.8125 33.546875 5.8125 39.890625 
Q 5.8125 47.609375 11.28125 51.796875 
Q 16.75 56 26.8125 56 
Q 31.78125 56 36.171875 55.265625 
Q 40.578125 54.546875 44.28125 53.078125 
z
" id="DejaVuSans-73"/>
     <path d="M 64.40625 67.28125 
L 64.40625 56.890625 
Q 59.421875 61.53125 53.78125 63.8125 
Q 48.140625 66.109375 41.796875 66.109375 
Q 29.296875 66.109375 22.65625 58.46875 
Q 16.015625 50.828125 16.015625 36.375 
Q 16.015625 21.96875 22.65625 14.328125 
Q 29.296875 6.6875 41.796875 6.6875 
Q 48.140625 6.6875 53.78125 8.984375 
Q 59.421875 11.28125 64.40625 15.921875 
L 64.40625 5.609375 
Q 59.234375 2.09375 53.4375 0.328125 
Q 47.65625 -1.421875 41.21875 -1.421875 
Q 24.65625 -1.421875 15.125 8.703125 
Q 5.609375 18.84375 5.609375 36.375 
Q 5.609375 53.953125 15.125 64.078125 
Q 24.65625 74.21875 41.21875 74.21875 
Q 47.75 74.21875 53.53125 72.484375 
Q 59.328125 70.75 64.40625 67.28125 
z
" id="DejaVuSans-43"/>
     <path d="M 48.78125 52.59375 
L 48.78125 44.1875 
Q 44.96875 46.296875 41.140625 47.34375 
Q 37.3125 48.390625 33.40625 48.390625 
Q 24.65625 48.390625 19.8125 42.84375 
Q 14.984375 37.3125 14.984375 27.296875 
Q 14.984375 17.28125 19.8125 11.734375 
Q 24.65625 6.203125 33.40625 6.203125 
Q 37.3125 6.203125 41.140625 7.25 
Q 44.96875 8.296875 48.78125 10.40625 
L 48.78125 2.09375 
Q 45.015625 0.34375 40.984375 -0.53125 
Q 36.96875 -1.421875 32.421875 -1.421875 
Q 20.0625 -1.421875 12.78125 6.34375 
Q 5.515625 14.109375 5.515625 27.296875 
Q 5.515625 40.671875 12.859375 48.328125 
Q 20.21875 56 33.015625 56 
Q 37.15625 56 41.109375 55.140625 
Q 45.0625 54.296875 48.78125 52.59375 
z
" id="DejaVuSans-63"/>
     <path d="M 8.5 21.578125 
L 8.5 54.6875 
L 17.484375 54.6875 
L 17.484375 21.921875 
Q 17.484375 14.15625 20.5 10.265625 
Q 23.53125 6.390625 29.59375 6.390625 
Q 36.859375 6.390625 41.078125 11.03125 
Q 45.3125 15.671875 45.3125 23.6875 
L 45.3125 54.6875 
L 54.296875 54.6875 
L 54.296875 0 
L 45.3125 0 
L 45.3125 8.40625 
Q 42.046875 3.421875 37.71875 1 
Q 33.40625 -1.421875 27.6875 -1.421875 
Q 18.265625 -1.421875 13.375 4.4375 
Q 8.5 10.296875 8.5 21.578125 
z
M 31.109375 56 
z
" id="DejaVuSans-75"/>
     <path d="M 9.421875 54.6875 
L 18.40625 54.6875 
L 18.40625 0 
L 9.421875 0 
z
M 9.421875 75.984375 
L 18.40625 75.984375 
L 18.40625 64.59375 
L 9.421875 64.59375 
z
" id="DejaVuSans-69"/>
    </defs>
    <g transform="translate(31.014906 18.8)scale(0.096 -0.096)">
     <use xlink:href="#DejaVuSans-41"/>
     <use x="68.330078" xlink:href="#DejaVuSans-76"/>
     <use x="127.509766" xlink:href="#DejaVuSans-65"/>
     <use x="189.033203" xlink:href="#DejaVuSans-72"/>
     <use x="230.146484" xlink:href="#DejaVuSans-61"/>
     <use x="291.425781" xlink:href="#DejaVuSans-67"/>
     <use x="354.902344" xlink:href="#DejaVuSans-65"/>
     <use x="416.425781" xlink:href="#DejaVuSans-20"/>
     <use x="448.212891" xlink:href="#DejaVuSans-53"/>
     <use x="511.689453" xlink:href="#DejaVuSans-68"/>
     <use x="575.068359" xlink:href="#DejaVuSans-6f"/>
     <use x="636.25" xlink:href="#DejaVuSans-72"/>
     <use x="677.363281" xlink:href="#DejaVuSans-74"/>
     <use x="716.572266" xlink:href="#DejaVuSans-65"/>
     <use x="778.095703" xlink:href="#DejaVuSans-73"/>
     <use x="830.195312" xlink:href="#DejaVuSans-74"/>
     <use x="869.404297" xlink:href="#DejaVuSans-20"/>
     <use x="901.191406" xlink:href="#DejaVuSans-50"/>
     <use x="961.431641" xlink:href="#DejaVuSans-61"/>
     <use x="1022.710938" xlink:href="#DejaVuSans-74"/>
     <use x="1061.919922" xlink:href="#DejaVuSans-68"/>
     <use x="1125.298828" xlink:href="#DejaVuSans-73"/>
     <use x="1177.398438" xlink:href="#DejaVuSans-20"/>
     <use x="1209.185547" xlink:href="#DejaVuSans-74"/>
     <use x="1248.394531" xlink:href="#DejaVuSans-6f"/>
     <use x="1309.576172" xlink:href="#DejaVuSans-20"/>
     <use x="1341.363281" xlink:href="#DejaVuSans-43"/>
     <use x="1411.1875" xlink:href="#DejaVuSans-6f"/>
     <use x="1472.369141" xlink:href="#DejaVuSans-6e"/>
     <use x="1535.748047" xlink:href="#DejaVuSans-73"/>
     <use x="1587.847656" xlink:href="#DejaVuSans-65"/>
     <use x="1649.371094" xlink:href="#DejaVuSans-63"/>
     <use x="1704.351562" xlink:href="#DejaVuSans-75"/>
     <use x="1767.730469" xlink:href="#DejaVuSans-74"/>
     <use x="1806.939453" xlink:href="#DejaVuSans-69"/>
     <use x="1834.722656" xlink:href="#DejaVuSans-76"/>
     <use x="1893.902344" xlink:href="#DejaVuSans-65"/>
     <use x="1955.425781" xlink:href="#DejaVuSans-20"/>
     <use x="1987.212891" xlink:href="#DejaVuSans-59"/>
     <use x="2048.09375" xlink:href="#DejaVuSans-65"/>
     <use x="2109.617188" xlink:href="#DejaVuSans-61"/>
     <use x="2170.896484" xlink:href="#DejaVuSans-72"/>
     <use x="2212.009766" xlink:href="#DejaVuSans-73"/>
    </g>
   </g>
   <g id="legend_1">
    <g id="patch_7">
     <path d="M 55.125 54.685 
L 125.35 54.685 
Q 126.95 54.685 126.95 53.085 
L 126.95 30.4 
Q 126.95 28.8 125.35 28.8 
L 55.125 28.8 
Q 53.525 28.8 53.525 30.4 
L 53.525 53.085 
Q 53.525 54.685 55.125 54.685 
z
" style="fill:#ffffff;opacity:0.8;stroke:#cccccc;stroke-linejoin:miter;stroke-width:0.24;"/>
    </g>
    <g id="line2d_46">
     <path d="M 56.725 35.27875 
L 72.725 35.27875 
" style="fill:none;opacity:0.7;stroke:#1f77b4;stroke-dasharray:1.4,2.31;stroke-dashoffset:0;stroke-width:1.4;"/>
    </g>
    <g id="line2d_47"/>
    <g id="text_13">
     <!-- Replication -->
     <defs>
      <path d="M 44.390625 34.1875 
Q 47.5625 33.109375 50.5625 29.59375 
Q 53.5625 26.078125 56.59375 19.921875 
L 66.609375 0 
L 56 0 
L 46.6875 18.703125 
Q 43.0625 26.03125 39.671875 28.421875 
Q 36.28125 30.8125 30.421875 30.8125 
L 19.671875 30.8125 
L 19.671875 0 
L 9.8125 0 
L 9.8125 72.90625 
L 32.078125 72.90625 
Q 44.578125 72.90625 50.734375 67.671875 
Q 56.890625 62.453125 56.890625 51.90625 
Q 56.890625 45.015625 53.6875 40.46875 
Q 50.484375 35.9375 44.390625 34.1875 
z
M 19.671875 64.796875 
L 19.671875 38.921875 
L 32.078125 38.921875 
Q 39.203125 38.921875 42.84375 42.21875 
Q 46.484375 45.515625 46.484375 51.90625 
Q 46.484375 58.296875 42.84375 61.546875 
Q 39.203125 64.796875 32.078125 64.796875 
z
" id="DejaVuSans-52"/>
      <path d="M 18.109375 8.203125 
L 18.109375 -20.796875 
L 9.078125 -20.796875 
L 9.078125 54.6875 
L 18.109375 54.6875 
L 18.109375 46.390625 
Q 20.953125 51.265625 25.265625 53.625 
Q 29.59375 56 35.59375 56 
Q 45.5625 56 51.78125 48.09375 
Q 58.015625 40.1875 58.015625 27.296875 
Q 58.015625 14.40625 51.78125 6.484375 
Q 45.5625 -1.421875 35.59375 -1.421875 
Q 29.59375 -1.421875 25.265625 0.953125 
Q 20.953125 3.328125 18.109375 8.203125 
z
M 48.6875 27.296875 
Q 48.6875 37.203125 44.609375 42.84375 
Q 40.53125 48.484375 33.40625 48.484375 
Q 26.265625 48.484375 22.1875 42.84375 
Q 18.109375 37.203125 18.109375 27.296875 
Q 18.109375 17.390625 22.1875 11.75 
Q 26.265625 6.109375 33.40625 6.109375 
Q 40.53125 6.109375 44.609375 11.75 
Q 48.6875 17.390625 48.6875 27.296875 
z
" id="DejaVuSans-70"/>
      <path d="M 9.421875 75.984375 
L 18.40625 75.984375 
L 18.40625 0 
L 9.421875 0 
z
" id="DejaVuSans-6c"/>
     </defs>
     <g transform="translate(79.125 38.07875)scale(0.08 -0.08)">
      <use xlink:href="#DejaVuSans-52"/>
      <use x="69.419922" xlink:href="#DejaVuSans-65"/>
      <use x="130.943359" xlink:href="#DejaVuSans-70"/>
      <use x="194.419922" xlink:href="#DejaVuSans-6c"/>
      <use x="222.203125" xlink:href="#DejaVuSans-69"/>
      <use x="249.986328" xlink:href="#DejaVuSans-63"/>
      <use x="304.966797" xlink:href="#DejaVuSans-61"/>
      <use x="366.246094" xlink:href="#DejaVuSans-74"/>
      <use x="405.455078" xlink:href="#DejaVuSans-69"/>
      <use x="433.238281" xlink:href="#DejaVuSans-6f"/>
      <use x="494.419922" xlink:href="#DejaVuSans-6e"/>
     </g>
    </g>
    <g id="line2d_48">
     <path d="M 56.725 47.02125 
L 72.725 47.02125 
" style="fill:none;opacity:0.7;stroke:#ff7f0e;stroke-dasharray:1.4,2.31;stroke-dashoffset:0;stroke-width:1.4;"/>
    </g>
    <g id="line2d_49"/>
    <g id="text_14">
     <!-- Interaction -->
     <defs>
      <path d="M 9.8125 72.90625 
L 19.671875 72.90625 
L 19.671875 0 
L 9.8125 0 
z
" id="DejaVuSans-49"/>
     </defs>
     <g transform="translate(79.125 49.82125)scale(0.08 -0.08)">
      <use xlink:href="#DejaVuSans-49"/>
      <use x="29.492188" xlink:href="#DejaVuSans-6e"/>
      <use x="92.871094" xlink:href="#DejaVuSans-74"/>
      <use x="132.080078" xlink:href="#DejaVuSans-65"/>
      <use x="193.603516" xlink:href="#DejaVuSans-72"/>
      <use x="234.716797" xlink:href="#DejaVuSans-61"/>
      <use x="295.996094" xlink:href="#DejaVuSans-63"/>
      <use x="350.976562" xlink:href="#DejaVuSans-74"/>
      <use x="390.185547" xlink:href="#DejaVuSans-69"/>
      <use x="417.96875" xlink:href="#DejaVuSans-6f"/>
      <use x="479.150391" xlink:href="#DejaVuSans-6e"/>
     </g>
    </g>
   </g>
  </g>
 </g>
 <defs>
  <clipPath id="p5dd2adaedc">
   <rect height="185.3" width="180.332813" x="49.525" y="24.8"/>
  </clipPath>
 </defs>
</svg>
